<?xml version="1.0" encoding="utf-8"?>
<!-- Generator: Adobe Illustrator 24.1.0, SVG Export Plug-In . SVG Version: 6.00 Build 0)  -->
<svg version="1.1" id="Capa_1" xmlns="http://www.w3.org/2000/svg" xmlns:xlink="http://www.w3.org/1999/xlink" x="0px" y="0px"
	 viewBox="0 0 2436 1610.2" style="enable-background:new 0 0 2436 1610.2;" xml:space="preserve">
<style type="text/css">
	.st0{fill:url(#SVGID_1_);}
	.st1{fill:#76FFFF;}
	.st2{fill:none;stroke:#76FFFF;stroke-width:3.4366;stroke-miterlimit:10;}
	.st3{fill:none;stroke:#76FFFF;stroke-width:1.9847;stroke-miterlimit:10;}
	.st4{fill:none;stroke:#76FFFF;stroke-miterlimit:10;}
	.st5{fill:none;stroke:#76FFFF;stroke-width:2;stroke-miterlimit:10;stroke-dasharray:11.689;}
	.st6{clip-path:url(#SVGID_3_);fill:none;stroke:#76FFFF;stroke-width:2.1475;stroke-miterlimit:10;}
	.st7{fill:none;stroke:#76FFFF;stroke-width:2;stroke-miterlimit:10;}
	.st8{fill:none;stroke:#76FFFF;stroke-width:1.155;stroke-miterlimit:10;}
	.st9{fill:none;stroke:#76FFFF;stroke-width:3.2966;stroke-miterlimit:10;}
	.st10{fill:none;stroke:#76FFFF;stroke-width:3.2966;stroke-miterlimit:9.9999;}
	.st11{fill:none;stroke:#76FFFF;stroke-width:1.9038;stroke-miterlimit:10;}
	.st12{fill:none;stroke:#76FFFF;stroke-width:2;stroke-miterlimit:9.9999;}
	.st13{fill:none;stroke:#76FFFF;stroke-width:2.0001;stroke-miterlimit:10.0005;}
	.st14{fill:none;stroke:#76FFFF;stroke-width:2;stroke-miterlimit:10.0001;}
	.st15{fill:none;stroke:#76FFFF;stroke-width:2.0001;stroke-miterlimit:10.0004;}
</style>
<g id="BACKGROUND_2">
	<g>
		
			<radialGradient id="SVGID_1_" cx="601.2694" cy="1053.7942" r="804.2845" gradientTransform="matrix(3.248 0 0 -3.2204 -1814.7604 3486.1907)" gradientUnits="userSpaceOnUse">
			<stop  offset="0" style="stop-color:#11A9FF"/>
			<stop  offset="1" style="stop-color:#117EFF"/>
		</radialGradient>
		<rect class="st0" width="2436" height="1610.2"/>
		<g>
			<g>
				<g>
					<path class="st1" d="M1289.7,1244.1c-48.7-52.9-75.5-121.4-75.5-192.8c0-65.8,22-127.7,63.6-179l6.7,5.3
						c-40.4,49.8-61.7,109.9-61.7,173.8c0,69.3,26,135.8,73.3,187.1L1289.7,1244.1z"/>
					<path class="st1" d="M1506.3,1222.2l0-1.8c4.7,0,9.5-0.2,14.2-0.6l0.2,1.8C1515.9,1222,1511,1222.2,1506.3,1222.2z
						 M1491.9,1221.7c-4.8-0.4-9.6-1-14.2-1.7l0.3-1.8c4.6,0.8,9.4,1.3,14.1,1.7L1491.9,1221.7z M1534.8,1219.9l-0.3-1.8
						c4.7-0.8,9.3-1.7,13.9-2.9l0.5,1.8C1544.3,1218.2,1539.5,1219.2,1534.8,1219.9z M1463.6,1217.1c-4.6-1.1-9.2-2.5-13.8-4
						l0.6-1.7c4.5,1.5,9,2.8,13.6,4L1463.6,1217.1z M1562.6,1213l-0.6-1.7c4.5-1.5,8.9-3.2,13.2-5.1l0.7,1.7
						C1571.6,1209.7,1567.1,1211.5,1562.6,1213z M1436.5,1207.9c-4.4-1.9-8.7-4-12.9-6.2l0.9-1.6c4.2,2.2,8.4,4.3,12.8,6.1
						L1436.5,1207.9z M1588.9,1201.6l-0.9-1.6c4.1-2.2,8.2-4.6,12.2-7.2l1,1.5C1597.2,1197,1593.1,1199.4,1588.9,1201.6z
						 M1411.2,1194.5c-4-2.6-7.9-5.3-11.7-8.2l1.1-1.4c3.7,2.9,7.6,5.6,11.6,8.1L1411.2,1194.5z M1612.9,1186.2l-1.1-1.4
						c3.7-2.8,7.4-5.9,10.8-9l1.2,1.3C1620.3,1180.2,1616.6,1183.3,1612.9,1186.2z M1388.6,1177.2c-3.5-3.2-6.9-6.5-10.2-10l1.4-1.2
						c3.2,3.4,6.6,6.7,10,9.9L1388.6,1177.2z M1634,1167.1l-1.4-1.2c3.2-3.4,6.3-7,9.2-10.7l1.5,1.1
						C1640.3,1160,1637.2,1163.6,1634,1167.1z M1369.2,1156.4c-2.9-3.7-5.7-7.6-8.4-11.5l1.5-1c2.6,3.9,5.4,7.7,8.3,11.4
						L1369.2,1156.4z M1651.6,1144.8l-1.5-1c2.6-3.9,5-7.9,7.3-12l1.6,0.9C1656.7,1136.8,1654.2,1140.9,1651.6,1144.8z
						 M1353.4,1132.8c-2.3-4.1-4.4-8.4-6.3-12.7l1.7-0.7c1.9,4.2,4,8.5,6.3,12.5L1353.4,1132.8z M1665.3,1120l-1.7-0.7
						c1.9-4.3,3.6-8.6,5.2-13l1.7,0.6C1668.9,1111.2,1667.2,1115.7,1665.3,1120z M1341.9,1107c-1.6-4.4-2.9-9-4.1-13.5l1.8-0.4
						c1.2,4.5,2.5,9,4.1,13.4L1341.9,1107z M1674.6,1093.3l-1.8-0.4c1.2-4.5,2.1-9.1,2.9-13.7l1.8,0.3
						C1676.7,1084.1,1675.7,1088.7,1674.6,1093.3z M1334.8,1079.6c-0.8-4.6-1.4-9.3-1.8-14l1.8-0.1c0.4,4.6,1,9.3,1.8,13.9
						L1334.8,1079.6z M1679.3,1065.4l-1.8-0.1c0.4-4.6,0.6-9.3,0.6-14l0-0.4h1.8l0,0.4C1679.8,1056,1679.6,1060.8,1679.3,1065.4z
						 M1334.3,1051.5h-1.8l0-0.2c0-4.6,0.2-9.3,0.6-13.9l1.8,0.1c-0.4,4.6-0.6,9.2-0.6,13.8L1334.3,1051.5z M1677.4,1036.9
						c-0.4-4.6-1-9.3-1.8-13.9l1.8-0.3c0.8,4.6,1.4,9.3,1.8,14L1677.4,1036.9z M1336.6,1023.7l-1.8-0.3c0.8-4.6,1.8-9.3,2.9-13.8
						l1.8,0.4C1338.3,1014.5,1337.3,1019.1,1336.6,1023.7z M1672.7,1009.4c-1.2-4.5-2.5-9-4.1-13.4l1.7-0.6c1.6,4.4,2.9,9,4.1,13.5
						L1672.7,1009.4z M1343.5,996.6l-1.7-0.6c1.5-4.4,3.3-8.9,5.2-13.2l1.7,0.7C1346.8,987.8,1345,992.2,1343.5,996.6z M1663.4,983
						c-1.9-4.2-4-8.5-6.3-12.5l1.6-0.9c2.3,4.1,4.4,8.4,6.3,12.7L1663.4,983z M1354.9,971l-1.6-0.9c2.3-4.1,4.7-8.2,7.3-12.1l1.5,1
						C1359.6,962.9,1357.1,966.9,1354.9,971z M1649.8,958.5c-2.6-3.9-5.4-7.7-8.3-11.3l1.5-1.1c2.9,3.7,5.8,7.6,8.4,11.5
						L1649.8,958.5z M1370.4,947.6l-1.5-1.1c2.9-3.7,6-7.3,9.3-10.8l1.4,1.2C1376.4,940.3,1373.3,943.9,1370.4,947.6z M1632.4,936.5
						c-3.2-3.4-6.6-6.7-10.1-9.9l1.2-1.3c3.5,3.2,6.9,6.5,10.2,10L1632.4,936.5z M1389.6,927l-1.3-1.3c3.5-3.2,7.2-6.3,10.9-9.1
						l1.1,1.4C1396.7,920.8,1393.1,923.9,1389.6,927z M1611.4,917.6c-3.7-2.8-7.6-5.6-11.6-8.1l1-1.5c4,2.6,7.9,5.3,11.7,8.2
						L1611.4,917.6z M1411.9,909.8l-1-1.5c4-2.6,8.1-5,12.3-7.3l0.9,1.6C1420,904.9,1415.9,907.3,1411.9,909.8z M1587.7,902.4
						c-4.1-2.2-8.4-4.3-12.8-6.1l0.7-1.7c4.4,1.9,8.7,4,12.9,6.2L1587.7,902.4z M1436.9,896.5l-0.7-1.7c4.4-1.9,8.8-3.6,13.4-5.2
						l0.6,1.7C1445.6,892.9,1441.2,894.6,1436.9,896.5z M1561.6,891.2c-4.5-1.5-9-2.8-13.6-4l0.4-1.8c4.6,1.1,9.3,2.5,13.8,4
						L1561.6,891.2z M1463.7,887.4l-0.5-1.8c4.6-1.2,9.3-2.1,14-2.9l0.3,1.8C1472.9,885.3,1468.2,886.2,1463.7,887.4z M1534.1,884.4
						c-4.7-0.8-9.4-1.3-14.1-1.7l0.1-1.8c4.8,0.4,9.5,0.9,14.2,1.7L1534.1,884.4z M1491.7,882.8l-0.2-1.8c4.7-0.4,9.6-0.6,14.3-0.6
						l0,1.8C1501.1,882.2,1496.3,882.4,1491.7,882.8z"/>
					<path class="st1" d="M1506.4,1452.4l0-4.3c11.1,0,22.3-0.5,33.3-1.4l0.4,4.2C1528.9,1451.9,1517.6,1452.4,1506.4,1452.4z
						 M1472.8,1451.1c-11.2-0.9-22.4-2.2-33.4-4l0.7-4.2c10.9,1.8,22,3.1,33.1,4L1472.8,1451.1z M1573.5,1447l-0.7-4.2
						c10.9-1.8,21.9-4,32.6-6.7l1.1,4.1C1595.6,1442.9,1584.5,1445.2,1573.5,1447z M1406.4,1440.3c-10.8-2.7-21.7-5.9-32.3-9.4
						l1.4-4c10.5,3.5,21.2,6.7,31.9,9.3L1406.4,1440.3z M1638.7,1430.7l-1.4-4c10.5-3.5,20.9-7.6,31-11.9l1.7,3.9
						C1659.8,1423.1,1649.3,1427.2,1638.7,1430.7z M1342.7,1418.8c-10.2-4.4-20.4-9.3-30.3-14.6l2.1-3.7c9.7,5.2,19.8,10,29.9,14.4
						L1342.7,1418.8z M1700.3,1404.1l-2.1-3.7c9.7-5.2,19.3-10.8,28.6-16.8l2.4,3.6C1719.8,1393.1,1710.1,1398.8,1700.3,1404.1z
						 M1283.5,1387.3c-9.4-6-18.6-12.5-27.4-19.3l2.7-3.4c8.7,6.7,17.9,13.1,27.1,19.1L1283.5,1387.3z M1756.6,1367.8l-2.7-3.4
						c8.7-6.7,17.3-13.8,25.4-21.2l2.9,3.1C1774,1353.8,1765.4,1361,1756.6,1367.8z M1230.3,1346.6c-8.2-7.4-16.2-15.3-23.8-23.4
						l3.2-2.9c7.5,8,15.4,15.8,23.6,23.2L1230.3,1346.6z M1806,1322.9l-3.2-2.9c7.5-8,14.7-16.4,21.5-25l3.4,2.6
						C1821,1306.3,1813.6,1314.8,1806,1322.9z M1184.7,1297.9c-6.9-8.7-13.5-17.7-19.6-26.9l3.6-2.3c6.1,9.1,12.6,18.1,19.4,26.7
						L1184.7,1297.9z M1847.4,1270.7l-3.6-2.3c6.1-9.1,11.8-18.6,17.1-28.2l3.8,2C1859.4,1251.9,1853.5,1261.5,1847.4,1270.7z
						 M1147.8,1242.6c-5.3-9.7-10.3-19.7-14.8-29.7l4-1.7c4.5,10,9.4,19.9,14.7,29.4L1147.8,1242.6z M1879.5,1212.4l-4-1.7
						c4.5-10,8.5-20.3,12.1-30.6l4.1,1.4C1888.1,1191.9,1884,1202.3,1879.5,1212.4z M1120.7,1182c-3.6-10.4-6.9-21.1-9.6-31.8l4.2-1
						c2.7,10.6,5.9,21.1,9.5,31.4L1120.7,1182z M1901.4,1149.7l-4.2-1c2.7-10.6,5-21.4,6.8-32.1l4.3,0.7
						C1906.4,1128.2,1904.1,1139.1,1901.4,1149.7z M1104.2,1117.8c-1.8-10.8-3.2-21.9-4.2-32.9l4.3-0.4c0.9,10.9,2.3,21.8,4.1,32.5
						L1104.2,1117.8z M1912.3,1084.4l-4.3-0.3c0.9-10.8,1.4-21.8,1.4-32.8l0-1l4.3,0l0,1C1913.7,1062.3,1913.3,1073.5,1912.3,1084.4
						z M1102.9,1051.8h-4.3v-0.5c0-10.9,0.4-21.8,1.3-32.6l4.3,0.3c-0.9,10.7-1.3,21.5-1.3,32.3L1102.9,1051.8L1102.9,1051.8z
						 M1908,1017.6c-0.9-10.9-2.3-21.8-4.2-32.5l4.3-0.7c1.9,10.8,3.3,21.9,4.2,32.9L1908,1017.6z M1108.3,986.5l-4.3-0.7
						c1.8-10.9,4.1-21.8,6.8-32.5l4.2,1C1112.3,964.9,1110.1,975.7,1108.3,986.5z M1896.9,953c-2.7-10.5-5.9-21.1-9.6-31.4l4.1-1.4
						c3.7,10.4,6.9,21.1,9.7,31.7L1896.9,953z M1124.5,922.9l-4.1-1.4c3.6-10.4,7.7-20.8,12.2-30.9l4,1.7
						C1132.1,902.3,1128.1,912.6,1124.5,922.9z M1875.2,891.1c-4.5-10-9.4-19.9-14.7-29.4l3.8-2c5.3,9.7,10.3,19.7,14.9,29.7
						L1875.2,891.1z M1151.2,862.9l-3.8-2c5.3-9.7,11.1-19.3,17.2-28.5l3.6,2.3C1162.2,843.8,1156.4,853.3,1151.2,862.9z
						 M1843.3,833.5c-6.1-9.1-12.6-18.1-19.4-26.6l3.4-2.6c6.9,8.7,13.5,17.7,19.6,26.9L1843.3,833.5z M1187.6,808l-3.4-2.6
						c6.9-8.7,14.2-17.2,21.7-25.3l3.2,2.9C1201.6,790.9,1194.4,799.4,1187.6,808z M1802.3,781.9c-7.5-8-15.5-15.8-23.6-23.1
						l2.9-3.1c8.2,7.4,16.3,15.3,23.9,23.4L1802.3,781.9z M1232.6,759.7l-2.9-3.1c8.2-7.5,16.8-14.7,25.7-21.5l2.7,3.4
						C1249.3,745.2,1240.8,752.3,1232.6,759.7z M1753.2,737.6c-8.7-6.7-17.9-13.1-27.1-19l2.4-3.6c9.4,6,18.6,12.5,27.4,19.2
						L1753.2,737.6z M1285.1,719.3l-2.4-3.6c9.4-6,19.1-11.8,28.9-17l2.1,3.7C1304,707.7,1294.3,713.4,1285.1,719.3z M1697.4,701.8
						c-9.7-5.2-19.8-10-30-14.4l1.7-3.9c10.3,4.4,20.4,9.3,30.3,14.5L1697.4,701.8z M1343.6,688l-1.7-3.9
						c10.2-4.4,20.8-8.5,31.3-12.1l1.4,4C1364.1,679.6,1353.7,683.6,1343.6,688z M1636.4,675.6c-10.5-3.5-21.2-6.6-32-9.3l1.1-4.1
						c10.9,2.7,21.7,5.8,32.3,9.4L1636.4,675.6z M1406.5,666.7l-1.1-4.1c10.8-2.7,21.9-5,33-6.8l0.7,4.2
						C1428.1,661.7,1417.2,664,1406.5,666.7z M1571.8,659.7c-10.9-1.8-22-3.1-33.1-4l0.3-4.2c11.2,0.9,22.4,2.2,33.4,4L1571.8,659.7
						z M1472.1,655.8l-0.4-4.2c11.1-0.9,22.4-1.4,33.6-1.4l0,4.3C1494.3,654.5,1483.1,654.9,1472.1,655.8z"/>
					<g>
						<g>
							<rect x="1248.5" y="859.3" class="st1" width="9" height="8.9"/>
							<path class="st1" d="M1248.5,863.8c0,2.5,2,4.4,4.5,4.4c2.5,0,4.5-2,4.5-4.4s-2-4.4-4.5-4.4
								C1250.6,859.3,1248.5,861.3,1248.5,863.8z"/>
						</g>
						<g>
							<rect x="1241.6" y="870.3" class="st1" width="9" height="8.9"/>
							<path class="st1" d="M1241.6,874.7c0,2.5,2,4.4,4.5,4.4c2.5,0,4.5-2,4.5-4.4c0-2.5-2-4.4-4.5-4.4
								C1243.6,870.3,1241.6,872.2,1241.6,874.7z"/>
						</g>
						<g>
							<rect x="1234.6" y="881.2" class="st1" width="9" height="8.9"/>
							<path class="st1" d="M1234.6,885.6c0,2.5,2,4.4,4.5,4.4c2.5,0,4.5-2,4.5-4.4c0-2.5-2-4.4-4.5-4.4S1234.6,883.2,1234.6,885.6z
								"/>
						</g>
						<g>
							<rect x="1227.6" y="892.1" class="st1" width="9" height="8.9"/>
							<path class="st1" d="M1227.6,896.6c0,2.5,2,4.4,4.5,4.4s4.5-2,4.5-4.4s-2-4.4-4.5-4.4S1227.6,894.1,1227.6,896.6z"/>
						</g>
						<g>
							<rect x="1220.6" y="903" class="st1" width="9" height="8.9"/>
							<path class="st1" d="M1220.6,907.5c0,2.5,2,4.4,4.5,4.4c2.5,0,4.5-2,4.5-4.4c0-2.5-2-4.4-4.5-4.4S1220.6,905,1220.6,907.5z"
								/>
						</g>
						<g>
							<rect x="1214.4" y="914.4" class="st1" width="9" height="8.9"/>
							<path class="st1" d="M1214.4,918.8c0,2.5,2,4.4,4.5,4.4s4.5-2,4.5-4.4c0-2.5-2-4.4-4.5-4.4S1214.4,916.4,1214.4,918.8z"/>
						</g>
						<g>
							<rect x="1210" y="926.6" class="st1" width="9" height="8.9"/>
							<path class="st1" d="M1210,931c0,2.5,2,4.4,4.5,4.4c2.5,0,4.5-2,4.5-4.4s-2-4.4-4.5-4.4C1212.1,926.6,1210,928.6,1210,931z"
								/>
						</g>
						<g>
							<rect x="1205.7" y="938.7" class="st1" width="9" height="8.9"/>
							<path class="st1" d="M1205.7,943.2c0,2.5,2,4.4,4.5,4.4c2.5,0,4.5-2,4.5-4.4c0-2.5-2-4.4-4.5-4.4
								C1207.7,938.7,1205.7,940.7,1205.7,943.2z"/>
						</g>
						<g>
							<rect x="1201.3" y="950.9" class="st1" width="9" height="8.9"/>
							<path class="st1" d="M1201.3,955.4c0,2.5,2,4.4,4.5,4.4s4.5-2,4.5-4.4c0-2.5-2-4.4-4.5-4.4S1201.3,952.9,1201.3,955.4z"/>
						</g>
						<g>
							<rect x="1196.9" y="963.1" class="st1" width="9" height="8.9"/>
							<path class="st1" d="M1196.9,967.5c0,2.5,2,4.4,4.5,4.4c2.5,0,4.5-2,4.5-4.4s-2-4.4-4.5-4.4
								C1198.9,963.1,1196.9,965.1,1196.9,967.5z"/>
						</g>
						<g>
							<rect x="1192.5" y="975.3" class="st1" width="9" height="8.9"/>
							<path class="st1" d="M1192.5,979.7c0,2.5,2,4.4,4.5,4.4c2.5,0,4.5-2,4.5-4.4c0-2.5-2-4.4-4.5-4.4
								C1194.5,975.3,1192.5,977.3,1192.5,979.7z"/>
						</g>
						<g>
							<rect x="1190.9" y="988.1" class="st1" width="9" height="8.9"/>
							<path class="st1" d="M1190.9,992.5c0,2.5,2,4.4,4.5,4.4s4.5-2,4.5-4.4c0-2.5-2-4.4-4.5-4.4S1190.9,990.1,1190.9,992.5z"/>
						</g>
						<g>
							<rect x="1189.4" y="1000.9" class="st1" width="9" height="8.9"/>
							<path class="st1" d="M1189.4,1005.4c0,2.5,2,4.4,4.5,4.4s4.5-2,4.5-4.4s-2-4.4-4.5-4.4
								C1191.4,1000.9,1189.4,1002.9,1189.4,1005.4z"/>
						</g>
						<g>
							<rect x="1187.9" y="1013.7" class="st1" width="9" height="8.9"/>
							<path class="st1" d="M1187.9,1018.2c0,2.5,2,4.4,4.5,4.4c2.5,0,4.5-2,4.5-4.4s-2-4.4-4.5-4.4S1187.9,1015.7,1187.9,1018.2z"
								/>
						</g>
						<g>
							<rect x="1186.4" y="1026.6" class="st1" width="9" height="8.9"/>
							<path class="st1" d="M1186.4,1031c0,2.5,2,4.4,4.5,4.4c2.5,0,4.5-2,4.5-4.4c0-2.5-2-4.4-4.5-4.4
								C1188.5,1026.6,1186.4,1028.6,1186.4,1031z"/>
						</g>
						<g>
							<rect x="1184.9" y="1039.4" class="st1" width="9" height="8.9"/>
							<path class="st1" d="M1184.9,1043.9c0,2.5,2,4.4,4.5,4.4c2.5,0,4.5-2,4.5-4.4c0-2.5-2-4.4-4.5-4.4
								S1184.9,1041.4,1184.9,1043.9z"/>
						</g>
						<g>
							<rect x="1184.6" y="1052.3" class="st1" width="9" height="8.9"/>
							<path class="st1" d="M1184.6,1056.7c0,2.5,2,4.4,4.5,4.4s4.5-2,4.5-4.4c0-2.5-2-4.4-4.5-4.4S1184.6,1054.2,1184.6,1056.7z"/>
						</g>
						<g>
							<rect x="1185.9" y="1065.1" class="st1" width="9" height="8.9"/>
							<path class="st1" d="M1185.9,1069.6c0,2.5,2,4.4,4.5,4.4c2.5,0,4.5-2,4.5-4.4c0-2.5-2-4.4-4.5-4.4
								S1185.9,1067.1,1185.9,1069.6z"/>
						</g>
						<g>
							<rect x="1187.3" y="1078" class="st1" width="9" height="8.9"/>
							<path class="st1" d="M1187.3,1082.4c0,2.5,2,4.4,4.5,4.4c2.5,0,4.5-2,4.5-4.4c0-2.5-2-4.4-4.5-4.4
								C1189.3,1078,1187.3,1079.9,1187.3,1082.4z"/>
						</g>
					</g>
					<path class="st1" d="M1352.7,1095.4l-0.5-1.8c-3.9-13.7-5.9-28-5.9-42.4c0-46.5,20.7-90.3,56.8-120.3l1.4-1.2l72.6,83.8
						l-1.4,1.2c-11.1,9-17.5,22.3-17.5,36.5c0,3.9,0.5,7.8,1.5,11.6l0.4,1.7L1352.7,1095.4z M1404.1,935
						c-34.4,29.3-54.1,71.6-54.1,116.3c0,13.4,1.8,26.7,5.2,39.6l100.5-28.8c-0.8-3.5-1.2-7.2-1.2-10.8c0-14.6,6.3-28.4,17.4-38.1
						L1404.1,935z"/>
					<path class="st1" d="M1369.4,923.5l-1-0.9L1244,809.8l0.6-1c42.1-72.1,167.4-124.1,257.7-107.1c0,0,0.1,0,0.2,0
						c0.1,0,0.2,0,0.3,0l1.4,0l4,164.1l-2,0c-51.7,0-99.9,20.2-135.7,56.8L1369.4,923.5z M1247.6,809.2l121.7,110.4
						c36.1-36.3,84.3-56.4,135.9-56.7l-3.8-158.6c-42.7-7.9-95.8-0.5-145.6,20.4C1306.7,745.4,1267.4,776.1,1247.6,809.2z"/>
					<path class="st1" d="M1399.9,898l-42-38.1l0.6-1c17.7-30.3,70.3-52.2,108.3-45.1l1.5,0l1.3,55.4l-1.2,0.2
						c-24.3,4.8-47,14.2-67.6,27.9L1399.9,898z M1361.5,859.4l38.7,35.1c20.3-13.3,42.7-22.6,66.5-27.5l-1.2-50.6
						C1429,810,1379.1,830.6,1361.5,859.4z"/>
					<path class="st1" d="M1317.7,1058.1H1240l0-1.4c0-1.8-0.1-3.6-0.1-5.4c0-55.1,17.2-107.9,49.8-152.6l0.8-1.1l62.5,45.5
						l-0.8,1.1c-22.6,31.4-34.6,68.5-34.6,107.1c0,1.8,0,3.6,0.1,5.4L1317.7,1058.1z M1242.8,1055.3h72.1c0-1.3,0-2.7,0-4
						c0-38.8,11.9-76,34.3-107.6l-57.9-42.2c-31.7,44-48.4,95.7-48.4,149.8C1242.7,1052.6,1242.8,1054,1242.8,1055.3z"/>
					<path class="st1" d="M1322,1240.5l-1-1c-42.6-40.6-70.5-94.7-78.6-152.4l-0.2-1.4l77.2-8.9l0.2,1.3c6,40.6,26,78.7,56.3,107.2
						l1,1L1322,1240.5z M1245.4,1088.2c8.1,56,35.2,108.6,76.5,148.4l50.9-50.1c-29.8-28.5-49.6-66.2-55.9-106.5L1245.4,1088.2z"/>
					<polygon class="st1" points="1203.9,820.6 1209.3,814.2 1248.6,846.2 1243.2,852.6 					"/>
					<polygon class="st1" points="1176.9,859.7 1181.4,852.7 1224.5,879.6 1219.9,886.6 					"/>
					<polygon class="st1" points="1155.1,901.9 1158.7,894.3 1204.9,915.7 1201.2,923.2 					"/>
					<polygon class="st1" points="1138.8,946.3 1141.5,938.4 1190,953.9 1187.4,961.8 					"/>
					<polygon class="st1" points="1128.4,992.5 1130,984.3 1180.1,993.7 1178.5,1001.9 					"/>
					<polygon class="st1" points="1123.8,1039.5 1124.4,1031.2 1175.3,1034.4 1174.7,1042.7 					"/>
					<polygon class="st1" points="1125.3,1086.8 1124.8,1078.4 1175.7,1075.3 1176.2,1083.6 					"/>
				</g>
			</g>
			<g>
				<g>
					<path class="st2" d="M1655.6,620.7c-46.4-15.4-96.1-23.7-147.8-23.7c-255.7,0-463.1,204-463.1,455.7s207.3,455.7,463.1,455.7
						s463.1-204,463.1-455.7c0-90.3-26.7-174.5-72.7-245.3"/>
				</g>
			</g>
			<g>
				<g>
					<path class="st3" d="M1797.9,610.4c-83.6-53.2-183.1-84-290-84C1212.4,526.4,973,762,973,1052.8s239.5,526.4,534.9,526.4
						c267.7,0,489.4-193.5,528.7-446.1"/>
				</g>
			</g>
			<g>
				<path class="st4" d="M1335.5,590.8c53.7-19.4,111.8-30,172.4-30c41.3,0,81.5,4.9,119.9,14.3"/>
			</g>
		</g>
	</g>
</g>
<g id="BACKGROUND_1">
	<g>
		<g>
			<g>
				<path class="st1" d="M791,972.8c-23-21.9-53.1-35.5-85-38.4l1.1-11.5c34.5,3.2,67.2,18,92.1,41.7L791,972.8z"/>
				<path class="st1" d="M844.9,1083.3l-11.9-0.9c0.3-3.8,0.5-7.6,0.5-11.3c0-26.1-7.5-51.5-21.8-73.5l10-6.2
					c15.5,23.8,23.7,51.3,23.7,79.7C845.4,1075.1,845.2,1079.2,844.9,1083.3z"/>
				<path class="st1" d="M692.7,1097.7c-15.1,0-27.4-12-27.4-26.7s12.3-26.7,27.4-26.7c15.1,0,27.4,12,27.4,26.7
					S707.8,1097.7,692.7,1097.7z M692.7,1045.5c-14.4,0-26.2,11.5-26.2,25.5c0,14.1,11.8,25.5,26.2,25.5c14.4,0,26.2-11.5,26.2-25.5
					S707.2,1045.5,692.7,1045.5z"/>
				<path class="st1" d="M943.4,1198.5l-7.4-3.8c20.3-37.9,31.1-80.7,31.1-123.8c0-23.9-3.2-47.6-9.6-70.4l8-2.1
					c6.6,23.5,9.9,47.9,9.9,72.5C975.4,1115.4,964.3,1159.5,943.4,1198.5z"/>
				<path class="st1" d="M921.5,923.3c-24.6-36.1-58.1-66.2-97-87l4-7.1c40.1,21.4,74.7,52.4,100,89.6L921.5,923.3z"/>
				<path class="st1" d="M769.7,814.2c-18.4-5.2-37.5-8.6-56.8-10l0.6-8.1c19.8,1.4,39.5,4.9,58.5,10.3L769.7,814.2z"/>
				<path class="st1" d="M692.8,1235l0-1.7c4.6,0,9.2-0.2,13.7-0.6l0.1,1.7C702.1,1234.8,697.4,1235,692.8,1235z M678.9,1234.4
					c-4.6-0.4-9.3-0.9-13.8-1.6l0.3-1.7c4.5,0.7,9.1,1.3,13.6,1.6L678.9,1234.4z M720.5,1232.8l-0.3-1.7c4.5-0.7,9-1.7,13.5-2.7
					l0.4,1.7C729.6,1231.1,725,1232,720.5,1232.8z M651.5,1230c-4.5-1.1-9-2.4-13.3-3.8l0.6-1.6c4.3,1.4,8.8,2.7,13.2,3.8
					L651.5,1230z M747.4,1226.1l-0.6-1.6c4.3-1.4,8.6-3.1,12.8-4.9l0.7,1.6C756.1,1223,751.8,1224.7,747.4,1226.1z M625.3,1221.3
					c-4.2-1.8-8.4-3.8-12.5-6l0.8-1.5c4,2.1,8.2,4.1,12.4,5.9L625.3,1221.3z M772.8,1215.2l-0.8-1.5c4-2.1,8-4.4,11.8-6.9l1,1.5
					C780.9,1210.7,776.8,1213.1,772.8,1215.2z M600.8,1208.4c-3.9-2.5-7.7-5.1-11.3-7.9l1.1-1.4c3.6,2.7,7.4,5.4,11.2,7.8
					L600.8,1208.4z M796,1200.4l-1.1-1.4c3.6-2.7,7.1-5.6,10.5-8.7l1.2,1.3C803.2,1194.7,799.7,1197.6,796,1200.4z M578.9,1191.7
					c-3.4-3-6.7-6.3-9.8-9.6l1.3-1.2c3.1,3.3,6.4,6.5,9.7,9.5L578.9,1191.7z M816.4,1182l-1.3-1.2c3.1-3.3,6.1-6.7,8.9-10.2l1.4,1.1
					C822.6,1175.3,819.6,1178.7,816.4,1182z M560.1,1171.8c-2.8-3.5-5.6-7.3-8.1-11l1.5-1c2.5,3.7,5.2,7.4,8,10.9L560.1,1171.8z
					 M833.5,1160.7l-1.5-1c2.5-3.7,4.9-7.6,7.1-11.5l1.6,0.8C838.4,1153,836,1156.9,833.5,1160.7z M544.9,1149.2
					c-2.2-4-4.3-8-6.1-12.2l1.6-0.7c1.8,4.1,3.9,8.1,6.1,12L544.9,1149.2z M846.7,1136.9l-1.6-0.7c1.8-4.1,3.5-8.3,5-12.5l1.7,0.6
					C850.3,1128.5,848.6,1132.7,846.7,1136.9z M533.7,1124.4c-1.5-4.3-2.8-8.6-4-13l1.7-0.4c1.1,4.3,2.4,8.6,3.9,12.8L533.7,1124.4z
					 M855.8,1111.2l-1.7-0.4c1.1-4.3,2.1-8.7,2.8-13.1l1.8,0.3C857.8,1102.4,856.9,1106.9,855.8,1111.2z M526.8,1098.2
					c-0.8-4.4-1.3-9-1.7-13.4l1.8-0.1c0.4,4.4,0.9,8.9,1.7,13.3L526.8,1098.2z M860.3,1084.5l-1.8-0.1c0.4-4.4,0.6-8.9,0.6-13.4
					l0-0.4h1.8l0,0.4C860.9,1075.5,860.7,1080.1,860.3,1084.5z M526.3,1071.2h-1.8l0-0.2c0-4.5,0.2-8.9,0.5-13.4l1.8,0.1
					c-0.4,4.4-0.5,8.8-0.5,13.2L526.3,1071.2z M858.5,1057.2c-0.4-4.4-1-8.9-1.7-13.3l1.8-0.3c0.8,4.4,1.3,8.9,1.7,13.4
					L858.5,1057.2z M528.5,1044.5l-1.8-0.3c0.7-4.4,1.7-8.9,2.8-13.3l1.7,0.4C530.2,1035.7,529.3,1040.1,528.5,1044.5z
					 M853.9,1030.8c-1.1-4.3-2.5-8.6-3.9-12.8l1.7-0.6c1.5,4.3,2.9,8.6,4,13L853.9,1030.8z M535.2,1018.5l-1.7-0.6
					c1.5-4.3,3.2-8.5,5-12.6l1.6,0.7C538.4,1010.1,536.7,1014.3,535.2,1018.5z M845,1005.5c-1.8-4.1-3.9-8.1-6.1-12l1.6-0.8
					c2.2,3.9,4.3,8,6.1,12.2L845,1005.5z M546.2,994l-1.6-0.8c2.2-4,4.6-7.9,7.1-11.6l1.5,1C550.8,986.2,548.4,990.1,546.2,994z
					 M831.8,982c-2.5-3.7-5.2-7.4-8-10.9l1.4-1.1c2.8,3.5,5.6,7.3,8.1,11L831.8,982z M561.3,971.5l-1.4-1.1c2.8-3.5,5.8-7,9-10.3
					l1.3,1.2C567.1,964.6,564.1,968,561.3,971.5z M814.9,960.9c-3.1-3.3-6.4-6.5-9.7-9.5l1.2-1.3c3.4,3,6.7,6.3,9.8,9.6L814.9,960.9
					z M579.9,951.8l-1.2-1.3c3.4-3.1,6.9-6,10.6-8.8l1.1,1.4C586.7,945.9,583.2,948.8,579.9,951.8z M794.6,942.8
					c-3.6-2.7-7.4-5.3-11.2-7.8l1-1.5c3.9,2.5,7.7,5.1,11.3,7.9L794.6,942.8z M601.5,935.3l-1-1.5c3.9-2.5,7.9-4.8,11.9-7l0.9,1.5
					C609.3,930.5,605.3,932.9,601.5,935.3z M771.6,928.1c-4-2.1-8.2-4.1-12.4-5.9l0.7-1.6c4.2,1.8,8.4,3.8,12.5,5.9L771.6,928.1z
					 M625.6,922.5l-0.7-1.6c4.2-1.8,8.6-3.5,12.9-4.9l0.6,1.6C634.1,919.1,629.8,920.7,625.6,922.5z M746.4,917.4
					c-4.3-1.4-8.8-2.7-13.2-3.8l0.4-1.7c4.5,1.1,9,2.4,13.3,3.8L746.4,917.4z M651.6,913.8l-0.4-1.7c4.5-1.1,9-2,13.6-2.8l0.3,1.7
					C660.5,911.7,656,912.7,651.6,913.8z M719.8,910.9c-4.5-0.7-9.1-1.3-13.6-1.6l0.1-1.7c4.6,0.4,9.2,0.9,13.8,1.6L719.8,910.9z
					 M678.7,909.3l-0.1-1.7c4.6-0.4,9.3-0.6,13.9-0.6l0,1.7C687.8,908.8,683.2,909,678.7,909.3z"/>
				<path class="st1" d="M692.9,1455.8l0-4.1c10.7,0,21.6-0.4,32.2-1.3l0.3,4.1C714.8,1455.3,703.8,1455.8,692.9,1455.8z
					 M660.4,1454.5c-10.8-0.9-21.7-2.2-32.4-3.9l0.7-4c10.6,1.7,21.3,3,32,3.8L660.4,1454.5z M757.9,1450.6l-0.7-4
					c10.6-1.7,21.2-3.9,31.6-6.4l1,4C779.3,1446.6,768.6,1448.8,757.9,1450.6z M596.1,1444.2c-10.5-2.6-21-5.6-31.3-9l1.4-3.9
					c10.1,3.4,20.5,6.4,30.9,8.9L596.1,1444.2z M821,1435l-1.4-3.9c10.1-3.4,20.2-7.2,30-11.4l1.7,3.7
					C841.5,1427.7,831.3,1431.5,821,1435z M534.4,1423.6c-9.9-4.2-19.8-8.9-29.3-14l2-3.6c9.4,5,19.2,9.6,29,13.8L534.4,1423.6z
					 M880.6,1409.4l-2-3.6c9.4-5,18.7-10.4,27.7-16.1l2.3,3.4C899.6,1398.9,890.1,1404.4,880.6,1409.4z M477.1,1393.3
					c-9.1-5.8-18-12-26.5-18.5l2.6-3.2c8.5,6.4,17.3,12.6,26.3,18.3L477.1,1393.3z M935.1,1374.6l-2.6-3.2
					c8.4-6.4,16.7-13.3,24.6-20.3l2.8,3C952,1361.2,943.7,1368.1,935.1,1374.6z M425.7,1354.3c-8-7.1-15.7-14.7-23.1-22.5l3.1-2.8
					c7.3,7.7,14.9,15.2,22.8,22.2L425.7,1354.3z M983.1,1331.6l-3.1-2.8c7.3-7.7,14.3-15.8,20.9-24l3.3,2.5
					C997.5,1315.6,990.4,1323.8,983.1,1331.6z M381.5,1307.6c-6.7-8.3-13-17-19-25.8l3.5-2.2c5.9,8.7,12.2,17.3,18.8,25.6
					L381.5,1307.6z M1023.1,1281.4l-3.5-2.2c5.9-8.7,11.4-17.8,16.5-27l3.7,1.9C1034.7,1263.4,1029,1272.6,1023.1,1281.4z
					 M345.8,1254.5c-5.2-9.3-10-18.9-14.4-28.5l3.8-1.6c4.3,9.6,9.1,19.1,14.2,28.2L345.8,1254.5z M1054.2,1225.6l-3.8-1.6
					c4.3-9.6,8.3-19.4,11.7-29.3l4,1.3C1062.5,1205.9,1058.5,1215.9,1054.2,1225.6z M319.5,1196.4c-3.5-10-6.7-20.2-9.3-30.5l4.1-1
					c2.6,10.1,5.7,20.3,9.2,30.1L319.5,1196.4z M1075.3,1165.4l-4.1-1c2.6-10.1,4.8-20.5,6.6-30.8l4.1,0.7
					C1080.2,1144.7,1078,1155.2,1075.3,1165.4z M303.5,1134.8c-1.8-10.4-3.1-21-4-31.5l4.2-0.3c0.9,10.4,2.2,20.9,4,31.2
					L303.5,1134.8z M1086,1102.8l-4.2-0.3c0.9-10.4,1.3-21,1.3-31.4l0-0.9l4.2,0l0,0.9C1087.3,1081.6,1086.8,1092.3,1086,1102.8z
					 M302.3,1071.5h-4.2v-0.5c0-10.4,0.4-21,1.3-31.3l4.2,0.3c-0.8,10.2-1.3,20.7-1.3,31V1071.5z M1081.7,1038.7
					c-0.9-10.4-2.3-20.9-4-31.2l4.1-0.7c1.8,10.4,3.2,21,4.1,31.5L1081.7,1038.7z M307.5,1008.8l-4.1-0.7c1.8-10.4,4-20.9,6.6-31.1
					l4.1,1C311.4,988.1,309.2,998.5,307.5,1008.8z M1071,976.7c-2.6-10.1-5.8-20.3-9.3-30.1l4-1.3c3.5,10,6.7,20.2,9.4,30.5
					L1071,976.7z M323.2,947.9l-4-1.3c3.5-10,7.5-20,11.8-29.7l3.8,1.6C330.6,928.1,326.6,938,323.2,947.9z M1050,917.3
					c-4.3-9.6-9.1-19-14.2-28.2l3.7-2c5.2,9.3,10,18.9,14.4,28.5L1050,917.3z M349,890.2l-3.7-1.9c5.1-9.3,10.8-18.5,16.7-27.3
					l3.5,2.2C359.7,872,354.1,881.1,349,890.2z M1019.1,862.1c-5.9-8.7-12.2-17.3-18.8-25.5l3.3-2.5c6.7,8.3,13.1,17,19,25.8
					L1019.1,862.1z M384.3,837.6l-3.3-2.5c6.6-8.3,13.7-16.5,21.1-24.3l3.1,2.8C397.9,821.2,390.9,829.3,384.3,837.6z M979.4,812.6
					c-7.3-7.7-15-15.1-22.9-22.2l2.8-3c8,7.1,15.7,14.7,23.1,22.4L979.4,812.6z M427.9,791.3l-2.8-3c8-7.2,16.3-14.1,24.8-20.6
					l2.6,3.2C444,777.3,435.8,784.2,427.9,791.3z M931.9,770.1c-8.5-6.4-17.3-12.6-26.3-18.3l2.3-3.4c9.1,5.8,18,12,26.6,18.5
					L931.9,770.1z M478.7,752.6l-2.3-3.4c9.1-5.8,18.5-11.3,28-16.3l2,3.6C497,741.4,487.6,746.8,478.7,752.6z M877.9,735.8
					c-9.4-5-19.2-9.6-29-13.8l1.7-3.7c9.9,4.2,19.8,8.9,29.3,13.9L877.9,735.8z M535.3,722.5l-1.7-3.7c9.9-4.3,20.1-8.2,30.3-11.6
					l1.4,3.9C555.2,714.5,545.1,718.3,535.3,722.5z M818.8,710.6c-10.1-3.4-20.5-6.4-30.9-8.9l1-4c10.5,2.6,21,5.6,31.3,9
					L818.8,710.6z M596.2,702l-1-4c10.5-2.6,21.2-4.8,31.9-6.5l0.7,4C617.2,697.3,606.6,699.5,596.2,702z M756.2,695.3
					c-10.6-1.7-21.3-3-32-3.8l0.3-4.1c10.8,0.8,21.7,2.1,32.4,3.8L756.2,695.3z M659.8,691.7l-0.3-4.1c10.8-0.9,21.7-1.3,32.6-1.3
					l0,4.1C681.3,690.3,670.4,690.8,659.8,691.7z"/>
				<g>
					<g>
						<rect x="995.2" y="1072.6" class="st1" width="8.7" height="8.5"/>
						<path class="st1" d="M995.2,1076.9c0,2.4,2,4.3,4.4,4.3s4.4-1.9,4.4-4.3c0-2.4-2-4.3-4.4-4.3S995.2,1074.5,995.2,1076.9z"/>
					</g>
					<g>
						<rect x="995.2" y="1060.3" class="st1" width="8.7" height="8.5"/>
						<path class="st1" d="M995.2,1064.5c0,2.4,2,4.3,4.4,4.3s4.4-1.9,4.4-4.3c0-2.4-2-4.3-4.4-4.3S995.2,1062.2,995.2,1064.5z"/>
					</g>
					<g>
						<rect x="994.1" y="1047.9" class="st1" width="8.7" height="8.5"/>
						<path class="st1" d="M994.1,1052.2c0,2.4,2,4.3,4.4,4.3s4.4-1.9,4.4-4.3s-2-4.3-4.4-4.3S994.1,1049.8,994.1,1052.2z"/>
					</g>
					<g>
						<rect x="992.9" y="1035.6" class="st1" width="8.7" height="8.5"/>
						<path class="st1" d="M992.9,1039.8c0,2.4,2,4.3,4.4,4.3c2.4,0,4.4-1.9,4.4-4.3c0-2.4-2-4.3-4.4-4.3
							C994.9,1035.6,992.9,1037.5,992.9,1039.8z"/>
					</g>
					<g>
						<rect x="991.8" y="1023.2" class="st1" width="8.7" height="8.5"/>
						<path class="st1" d="M991.8,1027.5c0,2.4,2,4.3,4.4,4.3s4.4-1.9,4.4-4.3s-2-4.3-4.4-4.3S991.8,1025.1,991.8,1027.5z"/>
					</g>
					<g>
						<rect x="990.2" y="1011" class="st1" width="8.7" height="8.5"/>
						<path class="st1" d="M990.2,1015.2c0,2.4,2,4.3,4.4,4.3s4.4-1.9,4.4-4.3s-2-4.3-4.4-4.3S990.2,1012.9,990.2,1015.2z"/>
					</g>
					<g>
						<rect x="986.9" y="999" class="st1" width="8.7" height="8.5"/>
						<path class="st1" d="M986.9,1003.3c0,2.4,2,4.3,4.4,4.3s4.4-1.9,4.4-4.3s-2-4.3-4.4-4.3S986.9,1000.9,986.9,1003.3z"/>
					</g>
					<g>
						<rect x="983.6" y="987" class="st1" width="8.7" height="8.5"/>
						<path class="st1" d="M983.6,991.3c0,2.4,2,4.3,4.4,4.3s4.4-1.9,4.4-4.3c0-2.4-2-4.3-4.4-4.3C985.5,987,983.6,989,983.6,991.3z
							"/>
					</g>
					<g>
						<rect x="980.2" y="975.1" class="st1" width="8.7" height="8.5"/>
						<path class="st1" d="M980.2,979.4c0,2.4,2,4.3,4.4,4.3s4.4-1.9,4.4-4.3c0-2.4-2-4.3-4.4-4.3S980.2,977,980.2,979.4z"/>
					</g>
					<g>
						<rect x="976.9" y="963.1" class="st1" width="8.7" height="8.5"/>
						<path class="st1" d="M976.9,967.4c0,2.4,2,4.3,4.4,4.3s4.4-1.9,4.4-4.3s-2-4.3-4.4-4.3C978.9,963.1,976.9,965,976.9,967.4z"/>
					</g>
				</g>
				<g>
					<g>
						<rect x="944.3" y="902.2" class="st1" width="8.7" height="8.5"/>
						<path class="st1" d="M944.3,906.4c0,2.4,2,4.3,4.4,4.3s4.4-1.9,4.4-4.3c0-2.4-2-4.3-4.4-4.3
							C946.3,902.2,944.3,904.1,944.3,906.4z"/>
					</g>
					<g>
						<rect x="936.7" y="892.2" class="st1" width="8.7" height="8.5"/>
						<path class="st1" d="M936.7,896.5c0,2.4,2,4.3,4.4,4.3s4.4-1.9,4.4-4.3s-2-4.3-4.4-4.3S936.7,894.1,936.7,896.5z"/>
					</g>
					<g>
						<rect x="929.1" y="882.3" class="st1" width="8.7" height="8.5"/>
						<path class="st1" d="M929.1,886.5c0,2.4,2,4.3,4.4,4.3s4.4-1.9,4.4-4.3c0-2.4-2-4.3-4.4-4.3S929.1,884.2,929.1,886.5z"/>
					</g>
					<g>
						<rect x="921.5" y="872.3" class="st1" width="8.7" height="8.5"/>
						<path class="st1" d="M921.5,876.6c0,2.4,2,4.3,4.4,4.3s4.4-1.9,4.4-4.3s-2-4.3-4.4-4.3S921.5,874.2,921.5,876.6z"/>
					</g>
					<g>
						<rect x="913.3" y="863" class="st1" width="8.7" height="8.5"/>
						<path class="st1" d="M913.3,867.2c0,2.4,2,4.3,4.4,4.3s4.4-1.9,4.4-4.3c0-2.4-2-4.3-4.4-4.3S913.3,864.9,913.3,867.2z"/>
					</g>
					<g>
						<rect x="903.9" y="854.6" class="st1" width="8.7" height="8.5"/>
						<path class="st1" d="M903.9,858.8c0,2.4,2,4.3,4.4,4.3c2.4,0,4.4-1.9,4.4-4.3c0-2.4-2-4.3-4.4-4.3S903.9,856.5,903.9,858.8z"
							/>
					</g>
					<g>
						<rect x="894.6" y="846.2" class="st1" width="8.7" height="8.5"/>
						<path class="st1" d="M894.6,850.5c0,2.4,2,4.3,4.4,4.3s4.4-1.9,4.4-4.3s-2-4.3-4.4-4.3S894.6,848.1,894.6,850.5z"/>
					</g>
					<g>
						<rect x="885.3" y="837.8" class="st1" width="8.7" height="8.5"/>
						<path class="st1" d="M885.3,842.1c0,2.4,2,4.3,4.4,4.3s4.4-1.9,4.4-4.3c0-2.4-2-4.3-4.4-4.3S885.3,839.7,885.3,842.1z"/>
					</g>
					<g>
						<rect x="875.9" y="829.4" class="st1" width="8.7" height="8.5"/>
						<path class="st1" d="M875.9,833.7c0,2.4,2,4.3,4.4,4.3s4.4-1.9,4.4-4.3c0-2.4-2-4.3-4.4-4.3S875.9,831.3,875.9,833.7z"/>
					</g>
					<g>
						<rect x="865.3" y="822.6" class="st1" width="8.7" height="8.5"/>
						<path class="st1" d="M865.3,826.8c0,2.4,2,4.3,4.4,4.3c2.4,0,4.4-1.9,4.4-4.3s-2-4.3-4.4-4.3
							C867.3,822.6,865.3,824.5,865.3,826.8z"/>
					</g>
					<g>
						<rect x="854.5" y="816" class="st1" width="8.7" height="8.5"/>
						<path class="st1" d="M854.5,820.3c0,2.4,2,4.3,4.4,4.3s4.4-1.9,4.4-4.3s-2-4.3-4.4-4.3S854.5,817.9,854.5,820.3z"/>
					</g>
					<g>
						<rect x="843.8" y="809.5" class="st1" width="8.7" height="8.5"/>
						<path class="st1" d="M843.8,813.7c0,2.4,2,4.3,4.4,4.3s4.4-1.9,4.4-4.3s-2-4.3-4.4-4.3S843.8,811.4,843.8,813.7z"/>
					</g>
					<g>
						<rect x="833" y="802.9" class="st1" width="8.7" height="8.5"/>
						<path class="st1" d="M833,807.2c0,2.4,2,4.3,4.4,4.3s4.4-1.9,4.4-4.3c0-2.4-2-4.3-4.4-4.3C834.9,802.9,833,804.8,833,807.2z"
							/>
					</g>
					<g>
						<rect x="821.9" y="797" class="st1" width="8.7" height="8.5"/>
						<path class="st1" d="M821.9,801.3c0,2.4,2,4.3,4.4,4.3s4.4-1.9,4.4-4.3c0-2.4-2-4.3-4.4-4.3
							C823.8,797,821.9,798.9,821.9,801.3z"/>
					</g>
					<g>
						<rect x="810" y="792.6" class="st1" width="8.7" height="8.5"/>
						<path class="st1" d="M810,796.8c0,2.4,2,4.3,4.4,4.3s4.4-1.9,4.4-4.3s-2-4.3-4.4-4.3S810,794.5,810,796.8z"/>
					</g>
					<g>
						<rect x="798.1" y="788.1" class="st1" width="8.7" height="8.5"/>
						<path class="st1" d="M798.1,792.4c0,2.4,2,4.3,4.4,4.3c2.4,0,4.4-1.9,4.4-4.3c0-2.4-2-4.3-4.4-4.3
							C800.1,788.1,798.1,790,798.1,792.4z"/>
					</g>
					<g>
						<rect x="786.3" y="783.6" class="st1" width="8.7" height="8.5"/>
						<path class="st1" d="M786.3,787.9c0,2.4,2,4.3,4.4,4.3s4.4-1.9,4.4-4.3s-2-4.3-4.4-4.3C788.2,783.6,786.3,785.6,786.3,787.9z"
							/>
					</g>
					<g>
						<rect x="774.4" y="779.2" class="st1" width="8.7" height="8.5"/>
						<path class="st1" d="M774.4,783.5c0,2.4,2,4.3,4.4,4.3s4.4-1.9,4.4-4.3c0-2.4-2-4.3-4.4-4.3S774.4,781.1,774.4,783.5z"/>
					</g>
					<g>
						<rect x="762.1" y="776.4" class="st1" width="8.7" height="8.5"/>
						<path class="st1" d="M762.1,780.7c0,2.4,2,4.3,4.4,4.3c2.4,0,4.4-1.9,4.4-4.3s-2-4.3-4.4-4.3
							C764.1,776.4,762.1,778.3,762.1,780.7z"/>
					</g>
					<g>
						<rect x="749.6" y="774.3" class="st1" width="8.7" height="8.5"/>
						<path class="st1" d="M749.6,778.5c0,2.4,2,4.3,4.4,4.3s4.4-1.9,4.4-4.3s-2-4.3-4.4-4.3C751.5,774.3,749.6,776.2,749.6,778.5z"
							/>
					</g>
					<g>
						<rect x="737.1" y="772.1" class="st1" width="8.7" height="8.5"/>
						<path class="st1" d="M737.1,776.4c0,2.4,2,4.3,4.4,4.3s4.4-1.9,4.4-4.3c0-2.4-2-4.3-4.4-4.3C739,772.1,737.1,774,737.1,776.4z
							"/>
					</g>
					<g>
						<rect x="724.5" y="770" class="st1" width="8.7" height="8.5"/>
						<path class="st1" d="M724.5,774.2c0,2.4,2,4.3,4.4,4.3s4.4-1.9,4.4-4.3c0-2.4-2-4.3-4.4-4.3S724.5,771.9,724.5,774.2z"/>
					</g>
					<g>
						<rect x="712" y="767.8" class="st1" width="8.7" height="8.5"/>
						<path class="st1" d="M712,772.1c0,2.4,2,4.3,4.4,4.3s4.4-1.9,4.4-4.3c0-2.4-2-4.3-4.4-4.3C714,767.8,712,769.7,712,772.1z"/>
					</g>
				</g>
				<path class="st1" d="M692.7,1123.9c-18,0-34.9-8.7-45-23.3l3-1.9c9.5,13.6,25.2,21.8,42,21.8c27.9,0,50.7-22.2,50.7-49.4
					c0-21.8-14.3-40.7-35.6-47.2l1.1-3.3c22.8,6.9,38.1,27.2,38.1,50.5C746.9,1100.2,722.6,1123.9,692.7,1123.9z"/>
				<path class="st1" d="M757.8,1110.5l-7.1-4.3c6.7-10.5,10.3-22.7,10.3-35.2c0-22.4-11.5-43.2-30.7-55.6l4.6-6.8
					c21.5,13.9,34.4,37.2,34.4,62.4C769.4,1085,765.4,1098.7,757.8,1110.5z"/>
				<g>
					<path class="st1" d="M816.6,1102.3l-17.2-4.4l0.2-0.6c2.4-8.9,3.6-18.2,3.6-27.5c0-14.5-2.9-28.6-8.7-41.9l-0.2-0.5l16.4-6.8
						l0.2,0.5c6.7,15.4,10.1,31.8,10.1,48.7c0,10.8-1.4,21.6-4.2,32L816.6,1102.3z M800.8,1097l14.9,3.8c2.7-10.1,4-20.6,4-31.1
						c0-16.5-3.3-32.6-9.8-47.7l-14.2,5.9c5.7,13.3,8.5,27.3,8.5,41.8C804.3,1079,803.1,1088.2,800.8,1097z"/>
					<path class="st1" d="M787.5,1014.4l-0.3-0.5c-3.7-5.9-7.9-11.4-12.7-16.5l-0.4-0.4l13.2-11.7l0.4,0.4
						c5.5,5.9,10.5,12.4,14.7,19.2l0.3,0.5L787.5,1014.4z M775.8,997.1c4.5,4.9,8.6,10.2,12.1,15.8l13.2-7.8
						c-4-6.4-8.7-12.5-13.9-18.1L775.8,997.1z"/>
					<path class="st1" d="M758.2,983.1l-0.5-0.3c-13.4-9.5-29.1-16.1-45.4-19l-0.6-0.1l3.1-17.1l0.6,0.1c18.9,3.3,37.2,10.9,52.8,22
						l0.5,0.3L758.2,983.1z M713.1,962.7c16.1,2.9,31.5,9.4,44.8,18.7l9.1-12.2c-15.2-10.7-32.9-18.1-51.2-21.4L713.1,962.7z"/>
				</g>
				<path class="st1" d="M676,1028.8l-0.6-1.6l-36.3-97.8l1.7-0.6c16.6-5.8,34.1-8.7,51.9-8.7l2.8,0v105.7l-2.2,0
					c-0.2,0-0.4,0-0.5,0c-5.1,0-10.2,0.8-15.1,2.5L676,1028.8z M643.7,931.5l34.4,92.9c4.5-1.3,9.1-2,13.8-2.1v-98.7
					C675.4,923.6,659.2,926.3,643.7,931.5z"/>
				<g>
					<rect x="692.1" y="1033.8" class="st1" width="2" height="7.7"/>
					<polygon class="st1" points="687.2,1034.2 689.2,1034 690.2,1041.6 688.2,1041.9 					"/>
					<polygon class="st1" points="730.7,1082.8 730.1,1084.7 722.6,1082.3 723.2,1080.5 					"/>
					<polygon class="st1" points="731.8,1078.2 731.4,1080.1 723.6,1078.7 724,1076.7 					"/>
					<polygon class="st1" points="732.3,1073.4 732.2,1075.4 724.3,1074.9 724.4,1072.9 					"/>
					<polygon class="st1" points="732.2,1068.6 732.3,1070.6 724.4,1071.1 724.3,1069.1 					"/>
					<polygon class="st1" points="731.4,1063.9 731.8,1065.8 724,1067.3 723.6,1065.3 					"/>
					<polygon class="st1" points="730.1,1059.2 730.7,1061.1 723.2,1063.5 722.6,1061.6 					"/>
					<polygon class="st1" points="728.1,1054.9 729,1056.6 721.9,1059.9 721,1058.1 					"/>
					<polygon class="st1" points="725.7,1050.7 726.7,1052.4 720.1,1056.5 719,1054.8 					"/>
					<polygon class="st1" points="722.7,1046.9 723.9,1048.4 717.9,1053.3 716.6,1051.8 					"/>
					<polygon class="st1" points="719.2,1043.5 720.7,1044.9 715.3,1050.5 713.8,1049.1 					"/>
					<polygon class="st1" points="715.3,1040.5 716.9,1041.7 712.3,1047.9 710.7,1046.8 					"/>
					<polygon class="st1" points="711.1,1038.1 712.8,1039 709,1045.8 707.3,1044.8 					"/>
					<polygon class="st1" points="706.6,1036.2 708.5,1036.9 705.6,1044 703.7,1043.3 					"/>
					<polygon class="st1" points="701.9,1034.8 703.8,1035.3 701.8,1042.7 699.9,1042.2 					"/>
					<polygon class="st1" points="697,1034 699,1034.2 698,1041.9 696.1,1041.6 					"/>
				</g>
				<g>
					<polygon class="st1" points="798.8,1061.8 799.1,1067 777.9,1068.3 777.5,1063.1 					"/>
					<polygon class="st1" points="796.7,1049 797.7,1054.1 776.8,1058 775.8,1052.9 					"/>
					<polygon class="st1" points="793.1,1036.5 794.7,1041.5 774.5,1047.9 772.8,1042.9 					"/>
					<polygon class="st1" points="787.9,1024.6 790.2,1029.4 771,1038.2 768.7,1033.4 					"/>
					<polygon class="st1" points="781.2,1013.4 784.1,1017.8 766.1,1029 763.3,1024.5 					"/>
					<polygon class="st1" points="773.2,1003.1 776.6,1007.2 760.2,1020.4 756.7,1016.4 					"/>
					<polygon class="st1" points="729.8,974.1 734.8,976 727,995.3 722,993.4 					"/>
					<polygon class="st1" points="717.1,970.4 722.3,971.7 717,991.8 711.8,990.5 					"/>
					<polygon class="st1" points="704,968.3 709.3,968.9 706.7,989.5 701.3,988.9 					"/>
				</g>
				<path class="st1" d="M560.4,948.4l-1-0.9L438.9,839.3l0.5-0.9c40.8-69.1,162-119.1,249.5-102.8c0,0,0.1,0,0.2,0
					c0.1,0,0.2,0,0.3,0l1.3,0l3.8,157.4l-1.9,0c-50,0-96.7,19.3-131.4,54.5L560.4,948.4z M442.4,838.8l117.8,105.9
					c35-34.9,81.6-54.1,131.6-54.4l-3.7-152.2c-41.4-7.6-92.7-0.5-141,19.6C499.6,777.5,461.5,807,442.4,838.8z"/>
				<path class="st1" d="M825.6,949l-1-1c-17.5-17.9-38.2-31.7-61.4-41.2l-1.2-0.5l28.1-68l1.3,0.5c32.7,13.2,61.8,32.5,86.5,57.4
					l0.9,0.9L825.6,949z M765.5,904.8c22.7,9.5,42.9,23,60.2,40.4l49.3-48.1c-23.9-23.9-52-42.5-83.4-55.4L765.5,904.8z"/>
				<path class="st1" d="M896.7,1224.6l-60.5-43.6l0.9-1.1c23.8-30,37-65.9,38.1-103.8l0-1.3h75.2l0,1.4
					c-1.1,53.8-19.4,104.7-52.9,147.4L896.7,1224.6z M840.1,1180.5l56.1,40.5c32.3-41.6,50.1-91.2,51.5-143.4h-69.8
					C876.5,1115.1,863.4,1150.6,840.1,1180.5z"/>
				<path class="st1" d="M863.5,1008.4l191.1-85.6l-24.2-7.3L916.4,961l-35-11.4l-37.5,22.7C843.9,972.3,856,988.9,863.5,1008.4z"/>
				<polygon class="st1" points="1062.8,1082.3 1062.3,1090.3 1013,1087.3 1013.6,1079.3 				"/>
				<polygon class="st1" points="1061.4,1037 1061.9,1045 1012.6,1048 1012.1,1040 				"/>
				<polygon class="st1" points="1054.1,992.2 1055.6,1000.1 1007.1,1009.1 1005.6,1001.2 				"/>
				<polygon class="st1" points="970.4,832.2 975.7,838.3 937.6,869 932.4,862.8 				"/>
				<polygon class="st1" points="937.6,800.1 943.6,805.6 909.8,840.7 903.8,835.2 				"/>
				<polygon class="st1" points="900.8,772.3 907.5,777 878.4,816 871.8,811.3 				"/>
				<polygon class="st1" points="860.8,749.3 868,753.1 844.2,795.3 837,791.4 				"/>
				<polygon class="st1" points="818.1,731.2 825.8,734.2 807.6,779 799.9,776 				"/>
				<polygon class="st1" points="773.4,718.6 781.4,720.6 769.1,767.2 761.1,765.2 				"/>
			</g>
		</g>
		<g>
			<g>
				<path class="st1" d="M1349.4,447.7c-17.9-10.4-31.7-26.5-39.1-45.5l6.7-2.5c6.8,17.4,19.6,32.3,36,41.9L1349.4,447.7z"/>
				<path class="st1" d="M1396.6,460.3c-9.2,0-18.4-1.3-27.1-4l2.1-6.7c8.1,2.4,16.5,3.6,25,3.6c10.9,0,21.6-2,31.6-5.9l2.7,6.5
					C1419.9,458.2,1408.4,460.3,1396.6,460.3z"/>
				<path class="st1" d="M1396.6,386.6c-9.1,0-16.5-7.2-16.5-16.1c0-8.9,7.4-16.1,16.5-16.1s16.5,7.2,16.5,16.1
					C1413.1,379.3,1405.7,386.6,1396.6,386.6z M1396.6,355c-8.7,0-15.8,6.9-15.8,15.4c0,8.5,7.1,15.4,15.8,15.4s15.8-6.9,15.8-15.4
					C1412.4,361.9,1405.3,355,1396.6,355z"/>
				<path class="st1" d="M1270,482.1c-28.5-30.6-44.1-70.3-44.1-111.7c0-38.1,12.9-74,37.2-103.7l3.9,3.1
					c-23.6,28.9-36.1,63.7-36.1,100.6c0,40.2,15.2,78.6,42.8,108.4L1270,482.1z"/>
				<path class="st1" d="M1323.4,520.8c-12.7-5.9-24.6-13.3-35.5-22.1l3.2-3.8c10.5,8.5,22.1,15.7,34.5,21.4L1323.4,520.8z"/>
				<path class="st1" d="M1396.6,536.9c-3.5,0-6.9-0.1-10.4-0.3l0.3-4.9c3.3,0.2,6.7,0.3,10.1,0.3c38.4,0,75.8-13.1,105.4-36.9
					l3.2,3.8C1474.7,523.4,1436.1,536.9,1396.6,536.9z"/>
				<path class="st1" d="M1396.6,469.4l0-1.1c2.8,0,5.6-0.1,8.3-0.3l0.1,1C1402.2,469.3,1399.4,469.4,1396.6,469.4z M1388.2,469.1
					c-2.8-0.2-5.6-0.6-8.3-1l0.2-1c2.7,0.4,5.5,0.8,8.2,1L1388.2,469.1z M1413.3,468.1l-0.2-1c2.7-0.4,5.5-1,8.1-1.7l0.3,1
					C1418.8,467.1,1416.1,467.6,1413.3,468.1z M1371.7,466.4c-2.7-0.7-5.4-1.4-8-2.3l0.3-1c2.6,0.9,5.3,1.6,8,2.3L1371.7,466.4z
					 M1429.6,464.1l-0.4-1c2.6-0.9,5.2-1.9,7.7-2.9l0.4,1C1434.8,462.2,1432.2,463.2,1429.6,464.1z M1355.8,461.2
					c-2.6-1.1-5.1-2.3-7.5-3.6l0.5-0.9c2.4,1.3,4.9,2.5,7.5,3.6L1355.8,461.2z M1444.9,457.5l-0.5-0.9c2.4-1.3,4.8-2.7,7.1-4.2
					l0.6,0.9C1449.8,454.8,1447.4,456.2,1444.9,457.5z M1341.1,453.4c-2.3-1.5-4.6-3.1-6.8-4.8l0.7-0.8c2.2,1.7,4.5,3.2,6.8,4.7
					L1341.1,453.4z M1458.9,448.6l-0.7-0.8c2.2-1.6,4.3-3.4,6.3-5.2l0.7,0.8C1463.3,445.1,1461.1,446.9,1458.9,448.6z M1327.9,443.3
					c-2.1-1.8-4-3.8-5.9-5.8l0.8-0.7c1.9,2,3.8,3.9,5.9,5.7L1327.9,443.3z M1471.3,437.5l-0.8-0.7c1.9-2,3.7-4.1,5.4-6.2l0.8,0.6
					C1475,433.4,1473.2,435.5,1471.3,437.5z M1316.5,431.3c-1.7-2.1-3.4-4.4-4.9-6.7l0.9-0.6c1.5,2.2,3.1,4.5,4.8,6.6L1316.5,431.3z
					 M1481.6,424.6l-0.9-0.6c1.5-2.3,2.9-4.6,4.3-7l0.9,0.5C1484.6,419.9,1483.1,422.3,1481.6,424.6z M1307.3,417.6
					c-1.3-2.4-2.6-4.9-3.7-7.3l1-0.4c1.1,2.5,2.3,4.9,3.7,7.3L1307.3,417.6z M1489.6,410.2l-1-0.4c1.1-2.5,2.1-5,3-7.5l1,0.3
					C1491.7,405.1,1490.7,407.7,1489.6,410.2z M1300.5,402.7c-0.9-2.6-1.7-5.2-2.4-7.8l1-0.3c0.7,2.6,1.5,5.2,2.4,7.8L1300.5,402.7z
					 M1495,394.7l-1-0.3c0.7-2.6,1.2-5.3,1.7-7.9l1.1,0.2C1496.3,389.4,1495.7,392.1,1495,394.7z M1296.4,386.8
					c-0.5-2.7-0.8-5.4-1-8.1l1.1-0.1c0.2,2.7,0.6,5.4,1,8L1296.4,386.8z M1497.8,378.6l-1.1-0.1c0.2-2.7,0.3-5.4,0.3-8.1v-0.2h1.1
					l0,0.2C1498.1,373.2,1498,375.9,1497.8,378.6z M1296.1,370.5h-1.1v-0.1c0-2.7,0.1-5.4,0.3-8.1l1.1,0.1c-0.2,2.6-0.3,5.3-0.3,8
					V370.5z M1496.7,362.1c-0.2-2.7-0.6-5.4-1-8l1.1-0.2c0.5,2.7,0.8,5.4,1,8.1L1496.7,362.1z M1297.4,354.4l-1.1-0.2
					c0.5-2.7,1-5.4,1.7-8l1,0.3C1298.5,349.1,1297.9,351.8,1297.4,354.4z M1493.9,346.2c-0.7-2.6-1.5-5.2-2.4-7.8l1-0.3
					c0.9,2.6,1.7,5.2,2.4,7.8L1493.9,346.2z M1301.5,338.7l-1-0.3c0.9-2.6,1.9-5.1,3-7.6l1,0.4
					C1303.4,333.7,1302.4,336.2,1301.5,338.7z M1488.5,330.9c-1.1-2.5-2.3-4.9-3.7-7.3l0.9-0.5c1.3,2.4,2.6,4.9,3.7,7.3
					L1488.5,330.9z M1308.1,323.9l-0.9-0.5c1.3-2.4,2.8-4.8,4.3-7l0.9,0.6C1310.9,319.2,1309.4,321.5,1308.1,323.9z M1480.6,316.7
					c-1.5-2.2-3.1-4.5-4.8-6.6l0.8-0.6c1.7,2.1,3.4,4.4,4.9,6.6L1480.6,316.7z M1317.2,310.4l-0.8-0.6c1.7-2.1,3.5-4.2,5.4-6.2
					l0.8,0.7C1320.7,306.2,1318.9,308.2,1317.2,310.4z M1470.3,303.9c-1.9-2-3.9-3.9-5.9-5.7l0.7-0.8c2.1,1.8,4.1,3.8,5.9,5.8
					L1470.3,303.9z M1328.4,298.4l-0.7-0.8c2-1.8,4.2-3.6,6.4-5.3l0.7,0.8C1332.6,294.9,1330.4,296.6,1328.4,298.4z M1458.1,293
					c-2.2-1.6-4.5-3.2-6.8-4.7l0.6-0.9c2.3,1.5,4.6,3.1,6.8,4.7L1458.1,293z M1341.5,288.5l-0.6-0.9c2.3-1.5,4.8-2.9,7.2-4.2
					l0.5,0.9C1346.2,285.6,1343.8,287,1341.5,288.5z M1444.2,284.2c-2.4-1.3-4.9-2.5-7.5-3.5l0.4-1c2.6,1.1,5.1,2.3,7.5,3.6
					L1444.2,284.2z M1356.1,280.8l-0.4-1c2.5-1.1,5.2-2.1,7.8-3l0.4,1C1361.2,278.7,1358.6,279.7,1356.1,280.8z M1429,277.7
					c-2.6-0.9-5.3-1.6-8-2.3l0.3-1c2.7,0.7,5.4,1.4,8,2.3L1429,277.7z M1371.7,275.5l-0.3-1c2.7-0.7,5.5-1.2,8.2-1.7l0.2,1
					C1377.1,274.3,1374.4,274.8,1371.7,275.5z M1412.9,273.8c-2.7-0.4-5.5-0.8-8.2-1l0.1-1c2.8,0.2,5.6,0.5,8.3,1L1412.9,273.8z
					 M1388.1,272.8l-0.1-1c2.8-0.2,5.6-0.3,8.4-0.3l0,1.1C1393.6,272.5,1390.8,272.6,1388.1,272.8z"/>
				<path class="st1" d="M1396.7,602.8l0-2.5c6.5,0,13-0.3,19.5-0.8l0.2,2.5C1409.9,602.5,1403.3,602.8,1396.7,602.8z M1377,602
					c-6.5-0.5-13.1-1.3-19.5-2.3l0.4-2.4c6.4,1,12.9,1.8,19.3,2.3L1377,602z M1435.9,599.6l-0.4-2.4c6.4-1,12.8-2.3,19.1-3.9
					l0.6,2.4C1448.8,597.2,1442.4,598.6,1435.9,599.6z M1338.2,595.7c-6.3-1.6-12.7-3.4-18.9-5.5l0.8-2.3c6.1,2,12.4,3.9,18.7,5.4
					L1338.2,595.7z M1474,590.2l-0.8-2.3c6.1-2,12.2-4.4,18.1-6.9l1,2.3C1486.4,585.8,1480.2,588.1,1474,590.2z M1301,583.3
					c-6-2.6-11.9-5.4-17.7-8.4l1.2-2.2c5.7,3,11.6,5.8,17.5,8.3L1301,583.3z M1510,574.8l-1.2-2.2c5.7-3,11.3-6.3,16.7-9.7l1.4,2.1
					C1521.5,568.4,1515.8,571.7,1510,574.8z M1266.4,565c-5.5-3.5-10.9-7.2-16-11.2l1.6-1.9c5.1,3.9,10.4,7.6,15.9,11L1266.4,565z
					 M1542.9,553.7l-1.6-1.9c5.1-3.9,10.1-8,14.9-12.3l1.7,1.8C1553.2,545.7,1548.1,549.8,1542.9,553.7z M1235.3,541.5
					c-4.8-4.3-9.5-8.9-13.9-13.6l1.9-1.7c4.4,4.6,9,9.2,13.8,13.4L1235.3,541.5z M1571.9,527.8l-1.9-1.7c4.4-4.6,8.6-9.5,12.6-14.5
					l2,1.5C1580.6,518.1,1576.3,523.1,1571.9,527.8z M1208.7,513.3c-4-5-7.9-10.3-11.5-15.6l2.1-1.4c3.5,5.3,7.4,10.5,11.3,15.4
					L1208.7,513.3z M1596.1,497.5l-2.1-1.3c3.5-5.3,6.9-10.8,10-16.3l2.2,1.2C1603,486.6,1599.6,492.2,1596.1,497.5z M1187.1,481.2
					c-3.1-5.6-6-11.4-8.7-17.2l2.3-1c2.6,5.8,5.5,11.5,8.6,17L1187.1,481.2z M1614.8,463.7l-2.3-1c2.6-5.8,5-11.7,7.1-17.7l2.4,0.8
					C1619.9,451.9,1617.5,457.9,1614.8,463.7z M1171.2,446.1c-2.1-6-4-12.2-5.6-18.4l2.4-0.6c1.6,6.1,3.5,12.2,5.6,18.2
					L1171.2,446.1z M1627.6,427.4l-2.4-0.6c1.6-6.1,2.9-12.4,4-18.6l2.5,0.4C1630.5,414.9,1629.2,421.3,1627.6,427.4z M1161.6,408.9
					c-1.1-6.3-1.9-12.7-2.4-19l2.5-0.2c0.5,6.3,1.3,12.6,2.4,18.8L1161.6,408.9z M1634,389.6l-2.5-0.2c0.5-6.3,0.8-12.7,0.8-19v-0.6
					l2.5,0v0.6C1634.8,376.8,1634.6,383.3,1634,389.6z M1160.8,370.7h-2.5v-0.3c0-6.3,0.3-12.7,0.8-18.9l2.5,0.2
					c-0.5,6.2-0.8,12.5-0.8,18.7V370.7L1160.8,370.7z M1631.5,350.9c-0.5-6.3-1.4-12.6-2.4-18.8l2.5-0.4c1.1,6.3,1.9,12.7,2.5,19
					L1631.5,350.9z M1164,332.9l-2.5-0.4c1.1-6.3,2.4-12.6,4-18.8l2.5,0.6C1166.3,320.4,1165,326.6,1164,332.9z M1625,313.5
					c-1.6-6.1-3.5-12.2-5.6-18.2l2.4-0.8c2.1,6,4,12.2,5.7,18.4L1625,313.5z M1173.4,296.1l-2.4-0.8c2.1-6,4.5-12.1,7.1-17.9l2.3,1
					C1177.9,284.1,1175.5,290.1,1173.4,296.1z M1612.3,277.6c-2.6-5.8-5.5-11.5-8.6-17l2.2-1.2c3.1,5.6,6,11.4,8.7,17.2
					L1612.3,277.6z M1189.1,261.3l-2.2-1.2c3.1-5.6,6.5-11.2,10.1-16.5l2.1,1.3C1195.5,250.2,1192.1,255.7,1189.1,261.3z
					 M1593.7,244.3c-3.6-5.3-7.4-10.5-11.4-15.4l2-1.5c4,5,7.9,10.3,11.5,15.6L1593.7,244.3z M1210.3,229.5l-2-1.5
					c4-5,8.3-10,12.7-14.7l1.9,1.7C1218.5,219.6,1214.3,224.5,1210.3,229.5z M1569.7,214.4c-4.4-4.6-9-9.1-13.8-13.4l1.7-1.8
					c4.8,4.3,9.5,8.9,13.9,13.5L1569.7,214.4z M1236.7,201.5l-1.7-1.8c4.8-4.3,9.8-8.5,15-12.4l1.6,1.9
					C1246.4,193.1,1241.4,197.2,1236.7,201.5z M1541,188.7c-5.1-3.9-10.5-7.6-15.9-11l1.4-2.1c5.5,3.5,10.9,7.2,16,11.1L1541,188.7z
					 M1267.3,178.1l-1.4-2.1c5.5-3.5,11.1-6.8,16.9-9.9l1.2,2.2C1278.4,171.4,1272.7,174.7,1267.3,178.1z M1508.4,168
					c-5.7-3-11.6-5.8-17.5-8.3l1-2.3c6,2.6,12,5.4,17.7,8.4L1508.4,168z M1301.5,160l-1-2.3c6-2.6,12.1-4.9,18.3-7l0.8,2.3
					C1313.5,155.1,1307.4,157.5,1301.5,160z M1472.7,152.8c-6.1-2-12.4-3.8-18.7-5.4l0.6-2.4c6.3,1.5,12.7,3.4,18.9,5.4
					L1472.7,152.8z M1338.3,147.6l-0.6-2.4c6.3-1.6,12.8-2.9,19.3-4l0.4,2.4C1351,144.8,1344.6,146.1,1338.3,147.6z M1434.9,143.6
					c-6.4-1-12.9-1.8-19.3-2.3l0.2-2.5c6.5,0.5,13.1,1.3,19.5,2.3L1434.9,143.6z M1376.7,141.4l-0.2-2.5c6.5-0.5,13.1-0.8,19.7-0.8
					l0,2.5C1389.7,140.6,1383.1,140.8,1376.7,141.4z"/>
				<g>
					<g>
						<rect x="1208.6" y="371" class="st1" width="5.3" height="5.2"/>
						<ellipse class="st1" cx="1211.3" cy="373.6" rx="2.6" ry="2.6"/>
					</g>
					<g>
						<rect x="1209.4" y="378.4" class="st1" width="5.3" height="5.2"/>
						<ellipse class="st1" cx="1212" cy="381" rx="2.6" ry="2.6"/>
					</g>
					<g>
						<rect x="1210.1" y="385.9" class="st1" width="5.3" height="5.2"/>
						<path class="st1" d="M1210.1,388.4c0,1.4,1.2,2.6,2.6,2.6c1.5,0,2.6-1.2,2.6-2.6c0-1.4-1.2-2.6-2.6-2.6
							C1211.3,385.9,1210.1,387,1210.1,388.4z"/>
					</g>
					<g>
						<rect x="1210.9" y="393.3" class="st1" width="5.3" height="5.2"/>
						<path class="st1" d="M1210.9,395.9c0,1.4,1.2,2.6,2.6,2.6c1.5,0,2.6-1.2,2.6-2.6s-1.2-2.6-2.6-2.6
							C1212.1,393.3,1210.9,394.5,1210.9,395.9z"/>
					</g>
					<g>
						<rect x="1211.7" y="400.8" class="st1" width="5.3" height="5.2"/>
						<path class="st1" d="M1211.7,403.3c0,1.4,1.2,2.6,2.6,2.6c1.5,0,2.6-1.2,2.6-2.6s-1.2-2.6-2.6-2.6
							C1212.9,400.8,1211.7,401.9,1211.7,403.3z"/>
					</g>
					<g>
						<rect x="1213.2" y="408" class="st1" width="5.3" height="5.2"/>
						<ellipse class="st1" cx="1215.9" cy="410.6" rx="2.6" ry="2.6"/>
					</g>
					<g>
						<rect x="1215.5" y="415.2" class="st1" width="5.3" height="5.2"/>
						<ellipse class="st1" cx="1218.2" cy="417.8" rx="2.6" ry="2.6"/>
					</g>
					<g>
						<rect x="1217.8" y="422.3" class="st1" width="5.3" height="5.2"/>
						<path class="st1" d="M1217.8,424.9c0,1.4,1.2,2.6,2.6,2.6s2.6-1.2,2.6-2.6s-1.2-2.6-2.6-2.6
							C1219,422.3,1217.8,423.5,1217.8,424.9z"/>
					</g>
					<g>
						<rect x="1220.1" y="429.5" class="st1" width="5.3" height="5.2"/>
						<path class="st1" d="M1220.1,432.1c0,1.4,1.2,2.6,2.6,2.6s2.6-1.2,2.6-2.6s-1.2-2.6-2.6-2.6
							C1221.2,429.5,1220.1,430.6,1220.1,432.1z"/>
					</g>
					<g>
						<rect x="1222.3" y="436.6" class="st1" width="5.3" height="5.2"/>
						<path class="st1" d="M1222.3,439.2c0,1.4,1.2,2.6,2.6,2.6s2.6-1.2,2.6-2.6c0-1.4-1.2-2.6-2.6-2.6
							C1223.5,436.6,1222.3,437.8,1222.3,439.2z"/>
					</g>
					<g>
						<rect x="1225.7" y="443.3" class="st1" width="5.3" height="5.2"/>
						<ellipse class="st1" cx="1228.3" cy="445.9" rx="2.6" ry="2.6"/>
					</g>
					<g>
						<rect x="1229.3" y="449.9" class="st1" width="5.3" height="5.2"/>
						<path class="st1" d="M1229.3,452.5c0,1.4,1.2,2.6,2.6,2.6c1.5,0,2.6-1.2,2.6-2.6s-1.2-2.6-2.6-2.6
							C1230.5,449.9,1229.3,451.1,1229.3,452.5z"/>
					</g>
					<g>
						<rect x="1233" y="456.5" class="st1" width="5.3" height="5.2"/>
						<ellipse class="st1" cx="1235.6" cy="459.1" rx="2.6" ry="2.6"/>
					</g>
					<g>
						<rect x="1236.7" y="463.1" class="st1" width="5.3" height="5.2"/>
						<path class="st1" d="M1236.7,465.6c0,1.4,1.2,2.6,2.6,2.6c1.5,0,2.6-1.2,2.6-2.6s-1.2-2.6-2.6-2.6
							C1237.8,463.1,1236.7,464.2,1236.7,465.6z"/>
					</g>
					<g>
						<rect x="1240.4" y="469.6" class="st1" width="5.3" height="5.2"/>
						<path class="st1" d="M1240.4,472.1c0,1.4,1.2,2.6,2.6,2.6c1.5,0,2.6-1.2,2.6-2.6s-1.2-2.6-2.6-2.6
							C1241.6,469.6,1240.4,470.7,1240.4,472.1z"/>
					</g>
					<g>
						<rect x="1245.3" y="475.3" class="st1" width="5.3" height="5.2"/>
						<path class="st1" d="M1245.3,477.9c0,1.4,1.2,2.6,2.6,2.6c1.5,0,2.6-1.2,2.6-2.6s-1.2-2.6-2.6-2.6
							C1246.5,475.3,1245.3,476.5,1245.3,477.9z"/>
					</g>
					<g>
						<rect x="1250.2" y="481.1" class="st1" width="5.3" height="5.2"/>
						<path class="st1" d="M1250.2,483.7c0,1.4,1.2,2.6,2.6,2.6c1.5,0,2.6-1.2,2.6-2.6c0-1.4-1.2-2.6-2.6-2.6
							C1251.4,481.1,1250.2,482.3,1250.2,483.7z"/>
					</g>
					<g>
						<rect x="1255.1" y="486.9" class="st1" width="5.3" height="5.2"/>
						<ellipse class="st1" cx="1257.7" cy="489.5" rx="2.6" ry="2.6"/>
					</g>
					<g>
						<rect x="1260" y="492.7" class="st1" width="5.3" height="5.2"/>
						<ellipse class="st1" cx="1262.6" cy="495.2" rx="2.6" ry="2.6"/>
					</g>
					<g>
						<rect x="1265.3" y="498" class="st1" width="5.3" height="5.2"/>
						<path class="st1" d="M1265.3,500.6c0,1.4,1.2,2.6,2.6,2.6c1.5,0,2.6-1.2,2.6-2.6s-1.2-2.6-2.6-2.6
							C1266.5,498,1265.3,499.1,1265.3,500.6z"/>
					</g>
					<g>
						<rect x="1271.2" y="502.7" class="st1" width="5.3" height="5.2"/>
						<path class="st1" d="M1271.2,505.3c0,1.4,1.2,2.6,2.6,2.6c1.5,0,2.6-1.2,2.6-2.6s-1.2-2.6-2.6-2.6
							C1272.4,502.7,1271.2,503.9,1271.2,505.3z"/>
					</g>
					<g>
						<rect x="1277.1" y="507.5" class="st1" width="5.3" height="5.2"/>
						<path class="st1" d="M1277.1,510.1c0,1.4,1.2,2.6,2.6,2.6c1.5,0,2.6-1.2,2.6-2.6s-1.2-2.6-2.6-2.6
							C1278.3,507.5,1277.1,508.7,1277.1,510.1z"/>
					</g>
					<g>
						<rect x="1283.1" y="512.3" class="st1" width="5.3" height="5.2"/>
						<path class="st1" d="M1283.1,514.8c0,1.4,1.2,2.6,2.6,2.6c1.5,0,2.6-1.2,2.6-2.6c0-1.4-1.2-2.6-2.6-2.6
							C1284.2,512.3,1283.1,513.4,1283.1,514.8z"/>
					</g>
					<g>
						<rect x="1289" y="517" class="st1" width="5.3" height="5.2"/>
						<path class="st1" d="M1289,519.6c0,1.4,1.2,2.6,2.6,2.6c1.5,0,2.6-1.2,2.6-2.6c0-1.4-1.2-2.6-2.6-2.6
							C1290.2,517,1289,518.2,1289,519.6z"/>
					</g>
					<g>
						<rect x="1295.6" y="520.8" class="st1" width="5.3" height="5.2"/>
						<path class="st1" d="M1295.6,523.4c0,1.4,1.2,2.6,2.6,2.6c1.5,0,2.6-1.2,2.6-2.6c0-1.4-1.2-2.6-2.6-2.6
							C1296.7,520.8,1295.6,522,1295.6,523.4z"/>
					</g>
					<g>
						<rect x="1302.3" y="524.4" class="st1" width="5.3" height="5.2"/>
						<path class="st1" d="M1302.3,527c0,1.4,1.2,2.6,2.6,2.6c1.5,0,2.6-1.2,2.6-2.6s-1.2-2.6-2.6-2.6
							C1303.5,524.4,1302.3,525.5,1302.3,527z"/>
					</g>
					<g>
						<rect x="1309" y="528" class="st1" width="5.3" height="5.2"/>
						<path class="st1" d="M1309,530.5c0,1.4,1.2,2.6,2.6,2.6s2.6-1.2,2.6-2.6c0-1.4-1.2-2.6-2.6-2.6S1309,529.1,1309,530.5z"/>
					</g>
					<g>
						<rect x="1315.8" y="531.5" class="st1" width="5.3" height="5.2"/>
						<path class="st1" d="M1315.8,534.1c0,1.4,1.2,2.6,2.6,2.6c1.5,0,2.6-1.2,2.6-2.6s-1.2-2.6-2.6-2.6
							C1317,531.5,1315.8,532.7,1315.8,534.1z"/>
					</g>
					<g>
						<rect x="1322.6" y="534.9" class="st1" width="5.3" height="5.2"/>
						<path class="st1" d="M1322.6,537.5c0,1.4,1.2,2.6,2.6,2.6c1.5,0,2.6-1.2,2.6-2.6s-1.2-2.6-2.6-2.6
							C1323.8,534.9,1322.6,536.1,1322.6,537.5z"/>
					</g>
					<g>
						<rect x="1329.9" y="537.1" class="st1" width="5.3" height="5.2"/>
						<path class="st1" d="M1329.9,539.7c0,1.4,1.2,2.6,2.6,2.6c1.5,0,2.6-1.2,2.6-2.6s-1.2-2.6-2.6-2.6
							C1331.1,537.1,1329.9,538.3,1329.9,539.7z"/>
					</g>
					<g>
						<rect x="1337.3" y="539.4" class="st1" width="5.3" height="5.2"/>
						<ellipse class="st1" cx="1339.9" cy="541.9" rx="2.6" ry="2.6"/>
					</g>
					<g>
						<rect x="1344.6" y="541.6" class="st1" width="5.3" height="5.2"/>
						<path class="st1" d="M1344.6,544.2c0,1.4,1.2,2.6,2.6,2.6c1.5,0,2.6-1.2,2.6-2.6s-1.2-2.6-2.6-2.6
							C1345.8,541.6,1344.6,542.7,1344.6,544.2z"/>
					</g>
					<g>
						<rect x="1351.9" y="543.8" class="st1" width="5.3" height="5.2"/>
						<path class="st1" d="M1351.9,546.4c0,1.4,1.2,2.6,2.6,2.6c1.5,0,2.6-1.2,2.6-2.6c0-1.4-1.2-2.6-2.6-2.6
							C1353.1,543.8,1351.9,545,1351.9,546.4z"/>
					</g>
					<g>
						<rect x="1359.4" y="545.5" class="st1" width="5.3" height="5.2"/>
						<path class="st1" d="M1359.4,548c0,1.4,1.2,2.6,2.6,2.6s2.6-1.2,2.6-2.6s-1.2-2.6-2.6-2.6S1359.4,546.6,1359.4,548z"/>
					</g>
					<g>
						<rect x="1367" y="546.2" class="st1" width="5.3" height="5.2"/>
						<path class="st1" d="M1367,548.8c0,1.4,1.2,2.6,2.6,2.6c1.5,0,2.6-1.2,2.6-2.6c0-1.4-1.2-2.6-2.6-2.6
							C1368.2,546.2,1367,547.4,1367,548.8z"/>
					</g>
					<g>
						<rect x="1374.6" y="547" class="st1" width="5.3" height="5.2"/>
						<path class="st1" d="M1374.6,549.5c0,1.4,1.2,2.6,2.6,2.6c1.5,0,2.6-1.2,2.6-2.6s-1.2-2.6-2.6-2.6
							C1375.8,547,1374.6,548.1,1374.6,549.5z"/>
					</g>
					<g>
						<rect x="1382.3" y="547.7" class="st1" width="5.3" height="5.2"/>
						<path class="st1" d="M1382.3,550.3c0,1.4,1.2,2.6,2.6,2.6c1.5,0,2.6-1.2,2.6-2.6s-1.2-2.6-2.6-2.6
							C1383.4,547.7,1382.3,548.9,1382.3,550.3z"/>
					</g>
					<g>
						<rect x="1389.9" y="548.5" class="st1" width="5.3" height="5.2"/>
						<path class="st1" d="M1389.9,551c0,1.4,1.2,2.6,2.6,2.6c1.5,0,2.6-1.2,2.6-2.6s-1.2-2.6-2.6-2.6
							C1391.1,548.5,1389.9,549.6,1389.9,551z"/>
					</g>
					<g>
						<rect x="1397.5" y="548.5" class="st1" width="5.3" height="5.2"/>
						<ellipse class="st1" cx="1400.2" cy="551.1" rx="2.6" ry="2.6"/>
					</g>
					<g>
						<rect x="1405.2" y="547.8" class="st1" width="5.3" height="5.2"/>
						<path class="st1" d="M1405.2,550.3c0,1.4,1.2,2.6,2.6,2.6c1.5,0,2.6-1.2,2.6-2.6s-1.2-2.6-2.6-2.6
							C1406.3,547.8,1405.2,548.9,1405.2,550.3z"/>
					</g>
					<g>
						<rect x="1412.8" y="547" class="st1" width="5.3" height="5.2"/>
						<path class="st1" d="M1412.8,549.6c0,1.4,1.2,2.6,2.6,2.6c1.5,0,2.6-1.2,2.6-2.6c0-1.4-1.2-2.6-2.6-2.6
							C1414,547,1412.8,548.2,1412.8,549.6z"/>
					</g>
				</g>
				<path class="st1" d="M1396.6,402.4c-10.9,0-21-5.3-27.2-14.1l1.8-1.2c5.7,8.2,15.2,13.2,25.4,13.2c16.9,0,30.6-13.4,30.6-29.8
					c0-13.1-8.6-24.6-21.5-28.5l0.6-2c13.8,4.2,23,16.4,23,30.5C1429.3,388,1414.6,402.4,1396.6,402.4z"/>
				<path class="st1" d="M1366.2,404.5c-5.9-5-10.4-11.4-13.1-18.4l4.7-1.7c2.4,6.3,6.4,12,11.6,16.4L1366.2,404.5z"/>
				<path class="st1" d="M1396.6,415.6c-1.8,0-3.6-0.1-5.3-0.3l0.6-4.9c1.6,0.2,3.1,0.3,4.7,0.3c7.7,0,15.2-2.1,21.7-6l2.6,4.2
					C1413.6,413.3,1405.2,415.6,1396.6,415.6z"/>
				<g>
					<path class="st1" d="M1357.9,435.9l-0.3-0.2c-14.9-8.5-26.7-21.8-33.1-37.4l-0.1-0.3l10-3.9l0.1,0.3
						c5.5,13.5,15.6,24.9,28.5,32.2l0.3,0.2L1357.9,435.9z M1325.4,398.4c6.3,15.2,17.7,28.2,32.3,36.6l4.7-7.9
						c-12.8-7.3-22.8-18.7-28.3-32.1L1325.4,398.4z"/>
					<path class="st1" d="M1389.7,445.7l-0.4,0c-7-0.6-13.9-2.2-20.4-4.6l-0.3-0.1l3.8-9.8l0.3,0.1c5.6,2.1,11.5,3.4,17.6,4l0.4,0
						L1389.7,445.7z M1369.5,440.5c6.3,2.3,12.8,3.8,19.5,4.4l0.9-9.1c-5.9-0.6-11.6-1.9-17.1-3.9L1369.5,440.5z"/>
				</g>
				<path class="st1" d="M1306.8,396l-0.3-1c-2.3-8-3.4-16.2-3.4-24.5c0-26.9,12.1-52.3,33.2-69.7l0.8-0.7l42.5,48.5l-0.8,0.7
					c-6.5,5.2-10.2,12.9-10.2,21.1c0,2.3,0.3,4.5,0.9,6.7l0.3,1L1306.8,396z M1336.9,303c-20.1,17-31.6,41.5-31.6,67.4
					c0,7.8,1,15.5,3.1,22.9l58.7-16.7c-0.5-2-0.7-4.1-0.7-6.2c0-8.5,3.7-16.4,10.2-22L1336.9,303z"/>
				<g>
					<polygon class="st1" points="1373.3,373.1 1373.2,371.9 1377.9,371.6 1378,372.8 					"/>
					<polygon class="st1" points="1373.7,375.9 1373.5,374.8 1378.1,373.9 1378.4,375 					"/>
					<polygon class="st1" points="1374.5,378.7 1374.2,377.6 1378.7,376.1 1379.1,377.2 					"/>
					<polygon class="st1" points="1375.7,381.4 1375.2,380.3 1379.5,378.3 1380,379.4 					"/>
					<polygon class="st1" points="1377.1,383.9 1376.5,382.9 1380.5,380.4 1381.2,381.4 					"/>
					<polygon class="st1" points="1379,386.1 1378.2,385.2 1381.9,382.3 1382.6,383.2 					"/>
					<polygon class="st1" points="1381.1,388.3 1380.2,387.5 1383.4,384.1 1384.3,384.9 					"/>
					<polygon class="st1" points="1383.4,390 1382.4,389.3 1385.2,385.6 1386.2,386.3 					"/>
					<polygon class="st1" points="1386,391.5 1384.9,391 1387.2,386.9 1388.3,387.5 					"/>
					<polygon class="st1" points="1388.7,392.7 1387.5,392.3 1389.3,387.9 1390.4,388.4 					"/>
					<polygon class="st1" points="1391.5,393.5 1390.3,393.2 1391.5,388.7 1392.7,389 					"/>
					<polygon class="st1" points="1394.5,394 1393.3,393.8 1393.9,389.2 1395.1,389.3 					"/>
					<rect x="1396.2" y="389.4" class="st1" width="1.2" height="4.6"/>
					<polygon class="st1" points="1400.4,393.9 1399.2,394 1398.6,389.4 1399.8,389.2 					"/>
					<polygon class="st1" points="1403.3,393.2 1402.1,393.5 1400.9,389 1402.1,388.7 					"/>
					<polygon class="st1" points="1406.1,392.3 1405,392.7 1403.2,388.4 1404.3,387.9 					"/>
					<polygon class="st1" points="1408.8,390.9 1407.7,391.5 1405.4,387.4 1406.5,386.9 					"/>
					<polygon class="st1" points="1411.2,389.3 1410.2,390 1407.4,386.3 1408.4,385.6 					"/>
					<polygon class="st1" points="1413.4,387.4 1412.6,388.2 1409.3,384.8 1410.2,384 					"/>
					<polygon class="st1" points="1415.4,385.3 1414.7,386.2 1411,383.2 1411.8,382.3 					"/>
					<polygon class="st1" points="1417.1,382.9 1416.4,383.9 1412.4,381.4 1413.1,380.4 					"/>
					<polygon class="st1" points="1418.5,380.3 1418,381.4 1413.6,379.4 1414.2,378.4 					"/>
					<polygon class="st1" points="1419.5,377.6 1419.1,378.7 1414.6,377.3 1415,376.2 					"/>
					<polygon class="st1" points="1420.1,374.8 1419.9,375.9 1415.2,375.1 1415.4,373.9 					"/>
					<polygon class="st1" points="1420.5,371.9 1420.4,373 1415.6,372.8 1415.7,371.6 					"/>
				</g>
				<g>
					<polygon class="st1" points="1367.7,425.6 1364.8,424.1 1371,413.1 1373.9,414.6 					"/>
					<polygon class="st1" points="1375,428.8 1372,427.6 1376.7,416 1379.7,417.1 					"/>
					<polygon class="st1" points="1382.7,431 1379.5,430.2 1382.7,418.1 1385.9,418.9 					"/>
					<polygon class="st1" points="1390.6,432.3 1387.4,431.9 1389,419.5 1392.2,419.9 					"/>
					<rect x="1395.4" y="420.1" class="st1" width="3.3" height="12.5"/>
					<polygon class="st1" points="1406.6,431.9 1403.4,432.3 1401.8,419.8 1405,419.4 					"/>
					<polygon class="st1" points="1414.4,430.2 1411.3,431 1408.1,418.9 1411.2,418.1 					"/>
					<polygon class="st1" points="1422,427.6 1419,428.8 1414.2,417.1 1417.3,416 					"/>
				</g>
				<path class="st1" d="M1286.4,374.4H1241l0-0.8c0-1,0-2.1,0-3.2c0-31.9,10.1-62.5,29.1-88.4l0.5-0.7l36.5,26.3l-0.5,0.6
					c-13.2,18.2-20.2,39.7-20.2,62.1c0,1,0,2.1,0,3.1L1286.4,374.4z M1242.6,372.8h42.1c0-0.8,0-1.6,0-2.3c0-22.5,6.9-44,20.1-62.3
					l-33.9-24.4c-18.5,25.5-28.3,55.4-28.3,86.8C1242.6,371.2,1242.6,372,1242.6,372.8z"/>
				<path class="st1" d="M1288.9,480l-0.6-0.6c-24.9-23.5-41.2-54.9-45.9-88.2l-0.1-0.8l45.1-5.1l0.1,0.8
					c3.5,23.5,15.2,45.6,32.9,62.1l0.6,0.6L1288.9,480z M1244.1,391.8c4.7,32.4,20.6,62.9,44.7,85.9l29.8-29
					c-17.4-16.5-29-38.4-32.7-61.7L1244.1,391.8z"/>
				<path class="st1" d="M1396.6,522.2c-19.6,0-38.7-3.5-56.8-10.4l-0.8-0.3l17-41.1l0.8,0.3c12.7,4.8,26.1,7.2,39.8,7.2l1.1,0v44.3
					L1396.6,522.2z M1341.2,510.6c17.5,6.6,36,9.9,54.9,10v-41.1c-13.5-0.1-26.6-2.4-39.1-7.1L1341.2,510.6z"/>
				<polygon class="st1" points="1174,391 1173.6,386.2 1203.4,384.3 1203.7,389.2 				"/>
				<polygon class="st1" points="1178.4,418 1177.4,413.3 1206.7,407.8 1207.6,412.6 				"/>
				<polygon class="st1" points="1186.2,444.3 1184.7,439.7 1213,430.7 1214.6,435.3 				"/>
				<polygon class="st1" points="1197.3,469.5 1195.2,465.1 1222.2,452.7 1224.3,457.1 				"/>
				<polygon class="st1" points="1211.7,493 1209,488.9 1234.2,473.4 1236.8,477.4 				"/>
				<polygon class="st1" points="1228.9,514.7 1225.7,510.9 1248.7,492.4 1251.8,496.1 				"/>
				<polygon class="st1" points="1248.7,534 1245.1,530.7 1265.5,509.5 1269.1,512.8 				"/>
				<polygon class="st1" points="1347.8,583.2 1343,582 1350.4,553.8 1355.2,555.1 				"/>
				<polygon class="st1" points="1375.6,587.5 1370.6,586.9 1374.4,558.1 1379.3,558.7 				"/>
				<rect x="1398.7" y="559.3" class="st1" width="5" height="29.1"/>
			</g>
		</g>
		<g>
			<ellipse class="st5" cx="1398" cy="371.2" rx="355.9" ry="347"/>
		</g>
		<g>
			<defs>
				<rect id="SVGID_2_" x="688.4" y="372.1" width="728.6" height="710.5"/>
			</defs>
			<clipPath id="SVGID_3_">
				<use xlink:href="#SVGID_2_"  style="overflow:visible;"/>
			</clipPath>
			<path class="st6" d="M1278,725c-116.2-37.5-207.7-127.9-244.5-241.9"/>
		</g>
		<g>
			<g>
				<path class="st7" d="M1140.2,455.9c-9.2-26.6-14.2-55.1-14.2-84.7c0-146.5,121.8-265.2,272-265.2s272,118.7,272,265.2
					s-121.8,265.2-272,265.2c-53.9,0-104.1-15.3-146.4-41.7"/>
				<g>
					<path class="st7" d="M1253.8,589.4c0,5.5-4.6,10-10.3,10s-10.3-4.5-10.3-10c0-5.5,4.6-10,10.3-10S1253.8,583.9,1253.8,589.4z"
						/>
					<path class="st1" d="M1247,589.4c0,1.9-1.6,3.4-3.5,3.4s-3.5-1.5-3.5-3.4c0-1.9,1.6-3.4,3.5-3.4S1247,587.5,1247,589.4z"/>
				</g>
				<g>
					<path class="st7" d="M1153.8,465.6c0,5.5-4.6,10-10.3,10s-10.3-4.5-10.3-10s4.6-10,10.3-10
						C1149.2,455.5,1153.8,460,1153.8,465.6z"/>
					<path class="st1" d="M1147,465.6c0,1.9-1.6,3.4-3.5,3.4s-3.5-1.5-3.5-3.4s1.6-3.4,3.5-3.4C1145.4,462.2,1147,463.7,1147,465.6z
						"/>
				</g>
			</g>
		</g>
		<g>
			<g>
				<path class="st8" d="M1134,537.3c-31.7-47.9-50.2-104.9-50.2-166.1c0-169.2,140.7-306.3,314.2-306.3s314.2,137.2,314.2,306.3
					c0,153.3-115.5,280.3-266.2,302.8"/>
				<g>
					<path class="st7" d="M1150.2,545.3c0,5.5-4.6,10-10.3,10s-10.3-4.5-10.3-10s4.6-10,10.3-10
						C1145.6,535.3,1150.2,539.7,1150.2,545.3z"/>
					<path class="st1" d="M1143.4,545.3c0,1.9-1.6,3.4-3.5,3.4s-3.5-1.5-3.5-3.4c0-1.9,1.6-3.4,3.5-3.4S1143.4,543.4,1143.4,545.3z"
						/>
				</g>
			</g>
		</g>
		<g>
			<g>
				<path class="st9" d="M837.4,658c-44.9-14.8-93.1-22.7-143.1-22.7C446.7,635.2,246,831,246,1072.4s200.7,437.2,448.3,437.2
					s448.3-195.7,448.3-437.2c0-86.6-25.8-167.4-70.4-235.3"/>
				<g>
					<ellipse class="st10" cx="1063.2" cy="824" rx="16.9" ry="16.5"/>
					<path class="st1" d="M1063.2,829.6c3.2,0,5.7-2.5,5.7-5.6c0-3.1-2.6-5.6-5.7-5.6s-5.7,2.5-5.7,5.6
						C1057.5,827.1,1060,829.6,1063.2,829.6z"/>
				</g>
				<g>
					<ellipse class="st10" cx="853.8" cy="663.3" rx="16.9" ry="16.5"/>
					<path class="st1" d="M853.8,668.9c3.2,0,5.7-2.5,5.7-5.6s-2.6-5.6-5.7-5.6c-3.2,0-5.7,2.5-5.7,5.6S850.7,668.9,853.8,668.9z"/>
				</g>
			</g>
		</g>
		<g>
			<g>
				<path class="st11" d="M975.1,648.1c-80.9-51-177.3-80.6-280.8-80.6c-286,0-517.8,226.1-517.8,504.9s231.8,504.9,517.8,504.9
					c259.1,0,473.8-185.6,511.8-427.9"/>
				<g>
					<ellipse class="st10" cx="988.6" cy="657.5" rx="16.9" ry="16.5"/>
					<path class="st1" d="M988.6,663.1c3.2,0,5.7-2.5,5.7-5.6c0-3.1-2.6-5.6-5.7-5.6c-3.2,0-5.7,2.5-5.7,5.6
						C982.9,660.6,985.4,663.1,988.6,663.1z"/>
				</g>
			</g>
		</g>
		<g>
			<g>
				<polygon class="st12" points="1013.1,833.1 1033.5,824.1 1042.7,843.9 1022.4,852.9 				"/>
				<polygon class="st13" points="1030.2,869.3 1051.2,861.8 1058.9,882.3 1037.9,889.7 				"/>
				<polygon class="st14" points="1055.1,950 1077.2,946.7 1080.6,968.3 1058.5,971.5 				"/>
				<polygon class="st15" points="1045,909.7 1066.7,904.3 1072.2,925.4 1050.6,930.9 				"/>
			</g>
		</g>
		<g>
			<g>
				<polyline class="st7" points="1187.9,1028 1597,1028 1597,764.9 				"/>
				<ellipse class="st1" cx="1184.8" cy="1028" rx="4.2" ry="4.1"/>
			</g>
		</g>
		<g>
			<g>
				<g>
					<polyline class="st4" points="1211.2,1048.2 1547.9,1048.2 1547.9,936.5 					"/>
					<g>
						<polygon class="st1" points="1213.3,1055.3 1200.7,1048.2 1213.3,1041.2 						"/>
					</g>
				</g>
			</g>
		</g>
		<g>
			<g>
				<ellipse class="st4" cx="954.6" cy="429" rx="6.1" ry="6"/>
				<ellipse class="st4" cx="977.9" cy="429" rx="6.1" ry="6"/>
				<ellipse class="st4" cx="1001.2" cy="429" rx="6.1" ry="6"/>
				<ellipse class="st4" cx="1024.5" cy="429" rx="6.1" ry="6"/>
			</g>
		</g>
		<g>
			<g>
				<ellipse class="st4" cx="1181.1" cy="1002.7" rx="6.1" ry="6"/>
				<path class="st4" d="M1210.5,1002.7c0,3.3-2.7,6-6.1,6c-3.4,0-6.1-2.7-6.1-6c0-3.3,2.7-6,6.1-6
					C1207.8,996.7,1210.5,999.4,1210.5,1002.7z"/>
				<ellipse class="st4" cx="1227.7" cy="1002.7" rx="6.1" ry="6"/>
				<path class="st4" d="M1257.1,1002.7c0,3.3-2.7,6-6.1,6s-6.1-2.7-6.1-6c0-3.3,2.7-6,6.1-6S1257.1,999.4,1257.1,1002.7z"/>
			</g>
		</g>
		<g>
			<g>
				<ellipse class="st4" cx="687.1" cy="443.5" rx="6.1" ry="6"/>
				<path class="st1" d="M716.5,443.5c0,3.3-2.7,6-6.1,6c-3.4,0-6.1-2.7-6.1-6s2.7-6,6.1-6C713.8,437.5,716.5,440.2,716.5,443.5z"/>
				<ellipse class="st4" cx="733.7" cy="443.5" rx="6.1" ry="6"/>
			</g>
		</g>
		<g>
			<g>
				<ellipse class="st1" cx="687.1" cy="463.2" rx="6.1" ry="6"/>
				<path class="st1" d="M716.5,463.2c0,3.3-2.7,6-6.1,6c-3.4,0-6.1-2.7-6.1-6s2.7-6,6.1-6C713.8,457.3,716.5,459.9,716.5,463.2z"/>
				<ellipse class="st1" cx="733.7" cy="463.2" rx="6.1" ry="6"/>
			</g>
		</g>
		<g>
			<g>
				<rect x="1053.9" y="608.2" class="st1" width="3.1" height="13.1"/>
				<rect x="1048.7" y="613.2" class="st1" width="13.4" height="3"/>
			</g>
		</g>
		<g>
			<g>
				<rect x="1194.6" y="570.3" class="st1" width="3.1" height="13.1"/>
				<rect x="1189.4" y="575.3" class="st1" width="13.4" height="3"/>
			</g>
		</g>
		<g>
			<g>
				<rect x="1001.8" y="495.2" class="st1" width="6.6" height="27.8"/>
				<rect x="990.8" y="505.9" class="st1" width="28.5" height="6.4"/>
			</g>
		</g>
		<g>
			<g>
				<rect x="1006" y="776.6" class="st1" width="3" height="12.5"/>
				<rect x="1001.1" y="781.4" class="st1" width="12.9" height="2.9"/>
			</g>
		</g>
		<g>
			<g>
				<g>
					<polyline class="st4" points="555.2,462.7 555.2,411.3 1010.1,411.3 					"/>
				</g>
			</g>
		</g>
		<g>
			<line class="st4" x1="795.9" y1="453.9" x2="1028.8" y2="453.9"/>
		</g>
		<g>
			<line class="st4" x1="754" y1="463.3" x2="986.9" y2="463.3"/>
		</g>
		<g>
			<g>
				<polygon class="st1" points="1323.3,1000.1 1310,992.6 1310,1007.6 				"/>
				<polygon class="st1" points="1339.7,1000.1 1326.4,992.6 1326.4,1007.6 				"/>
				<polygon class="st1" points="1356.1,1000.1 1342.7,992.6 1342.7,1007.6 				"/>
				<polygon class="st1" points="1372.4,1000.1 1359.1,992.6 1359.1,1007.6 				"/>
			</g>
		</g>
		<g>
			<g>
				<polygon class="st1" points="879.9,434.1 893.2,426.6 893.2,441.6 				"/>
				<polygon class="st1" points="863.6,434.1 876.9,426.6 876.9,441.6 				"/>
				<polygon class="st1" points="847.2,434.1 860.5,426.6 860.5,441.6 				"/>
				<polygon class="st1" points="830.8,434.1 844.1,426.6 844.1,441.6 				"/>
			</g>
		</g>
		<g>
			<line class="st4" x1="946.4" y1="400.3" x2="648.9" y2="400.3"/>
		</g>
		<g>
			<path class="st4" d="M396.7,590.8c54.2-19.4,112.8-30,174-30c41.7,0,82.3,4.9,121.1,14.3"/>
		</g>
		<g>
			<g>
				<ellipse class="st1" cx="856.4" cy="531.8" rx="15.4" ry="15"/>
				<path class="st1" d="M1016.2,753.5c0,3.9-3.2,7-7.2,7c-4,0-7.2-3.1-7.2-7c0-3.9,3.2-7,7.2-7
					C1013,746.5,1016.2,749.7,1016.2,753.5z"/>
				<ellipse class="st1" cx="1399.3" cy="960.3" rx="5.1" ry="5"/>
				<path class="st1" d="M1189.8,892.2c0,3.3-2.8,6-6.1,6c-3.4,0-6.1-2.7-6.1-6c0-3.3,2.8-6,6.1-6
					C1187.1,886.2,1189.8,888.9,1189.8,892.2z"/>
				<path class="st1" d="M1133.5,1049.2c0,2.8-2.3,5-5.1,5c-2.8,0-5.1-2.2-5.1-5s2.3-5,5.1-5
					C1131.2,1044.2,1133.5,1046.4,1133.5,1049.2z"/>
			</g>
		</g>
	</g>
</g>
</svg>
